<svg width="59" height="51" viewBox="0 0 59 51" fill="none" xmlns="http://www.w3.org/2000/svg">
<path d="M33.2895 4.58627C33.5835 5.9695 33.3124 7.34144 32.6323 8.46185L41.295 15.5622C41.538 15.7615 41.8872 15.7639 42.1331 15.5679L48.3126 10.6411C48.1763 10.3243 48.0692 9.98947 47.9947 9.6393C47.3823 6.75814 49.2214 3.92607 52.1026 3.31365C54.9839 2.70122 57.8159 4.54042 58.4283 7.42157C58.9561 9.90447 57.6631 12.3509 55.4518 13.3717L56.0805 39.47C56.1346 41.7151 54.5821 43.6803 52.3855 44.1471L21.5018 50.7117C19.3051 51.1786 17.0875 50.0148 16.2238 47.9418L6.1832 23.8441C3.74766 23.8111 1.5714 22.102 1.04364 19.6191C0.431232 16.7379 2.27041 13.9058 5.15157 13.2934C8.03272 12.681 10.8648 14.5202 11.4772 17.4013C11.5516 17.7515 11.5899 18.1009 11.5944 18.4458L19.2436 20.4332C19.5478 20.5123 19.866 20.3681 20.0071 20.0871L25.0328 10.0772C23.9556 9.33035 23.1499 8.18728 22.8559 6.80399C22.2435 3.92284 24.0826 1.09077 26.9638 0.478345C29.845 -0.13408 32.6771 1.70512 33.2895 4.58627ZM34.7259 36.9959C37.6071 36.3834 39.4462 33.5514 38.8338 30.6702C38.2213 27.789 35.3894 25.9499 32.5081 26.5623C29.6269 27.1747 27.7878 30.0067 28.4002 32.8879C29.0126 35.7692 31.8446 37.6083 34.7259 36.9959Z" fill="#FFE298"/>
</svg>
