<svg xmlns:xlink="http://www.w3.org/1999/xlink" xmlns="http://www.w3.org/2000/svg" width="60" height="15" viewBox="0 0 60 15"><path fill="#fc4412" d="M32.89.43h5.76v2.61h3.39v3.6h-3.39l.02 7.8c-1.43.13-3.16.23-4.28-.13-.6-.19-1.09-.73-1.31-1.31-.19-.49-.19-4.83-.19-6.38h-2.34v-3.6h2.34c0-.83-.04-1.78 0-2.59zM8.68 2.75c3.29-.24 6.98.78 7.66 3.11l.11.57s.02 6.42.02 8.06h-5.73v-3.24c-1.61.47-5.03 1.17-2.86 3.24-1.4 0-5.06.02-5.71 0-.84-.18-1.33-1.33-1.14-2.43.18-1.01.81-1.7 1.57-2.14 1.85-1.07 4.59-1.01 6.98-1.59.31-.08.63-.11.86-.28.15-.1.19-.23.24-.45.16-.97-.81-1.27-1.72-1.25-.28 0-.65.05-.89.11-.17.06-.39.17-.52.27-.28.22-.46.53-.44 1.04H1.58c.06-.49.15-.89.29-1.28.24-.65.6-1.23 1.07-1.72 1.28-1.32 3.31-1.84 5.74-2.02zm18.95.04c.63-.05 1.2.11 1.64.28v3.6c-1.02 0-2.14-.06-2.86.24-.42.16-.86.6-1.02 1.04-.23.55-.15 1.46-.15 2.24v4.31h-5.86V3.08h5.4c0 .45-.03 1.01.02 1.36.56-.94 1.44-1.54 2.83-1.65zm30.72 4.02c-.57-1.25-1.51-2.3-2.68-2.94-1.35-.73-3.26-1.23-5.43-1.07-3.89.29-6.55 2.08-7.22 5.63-.24 1.33-.08 2.86.29 3.93.16.45.91 2 1.25 2.11.49-.03 3.2 0 4.25 0v-2.86c3.36 0 6.73 0 10.09-.02.25-1.73.01-3.56-.55-4.78zm-9.71 1.8c.03-.52.1-.88.29-1.22.29-.54.83-.89 1.57-.97 1.83-.19 2.64.67 2.82 2.19-1.55-.02-3.11-.02-4.68 0z"/></svg>