<svg width="260" height="42" viewBox="0 0 260 42" fill="none" xmlns="http://www.w3.org/2000/svg">
<path fill-rule="evenodd" clip-rule="evenodd" d="M22.7267 0H22.1467C19.4117 0.336 17.1737 4.536 16.7587 7.056C16.7057 5.7871 16.3361 4.55161 15.6837 3.462C15.0344 2.37806 14.1214 1.47605 13.0297 0.84C11.5703 -0.0826268 9.6941 -0.0143151 8.30568 1.012L3.24968 5.292C1.63638 6.96049 1.33181 9.49926 2.50468 11.502C2.78573 12.0125 3.21764 12.6311 3.68843 13.3053L3.68844 13.3053C5.16078 15.4139 7.01332 18.067 5.82068 19.662C5.46 20.1126 4.90514 20.3628 4.32868 20.335C2.75468 20.335 2.50468 17.646 2.50468 17.646L1.17868 18.99C1.17868 18.99 3.16868 21.922 5.24068 20.502L8.88368 17.977C10.9737 16.4874 9.4409 14.2538 7.78252 11.8372L7.78252 11.8372C7.01051 10.7123 6.21129 9.54766 5.73768 8.4C4.74368 5.88 5.24068 3.612 7.31168 2.854C8.00885 2.64325 8.75141 2.63389 9.45368 2.827C10.1567 3.019 10.7927 3.407 11.2897 3.947C12.0182 5.03675 12.3685 6.3357 12.2867 7.644V21.337C12.3407 22.267 12.0777 23.186 11.5417 23.942C11.1867 24.292 10.7457 24.538 10.2647 24.657C9.78468 24.775 9.28068 24.76 8.80768 24.614C8.80768 24.614 10.6317 26.715 14.9327 24.362C15.8257 23.8366 16.5538 23.0718 17.0347 22.154C17.5177 21.234 17.7367 20.194 17.6677 19.154V7.98C17.6648 6.97617 18.0542 6.01093 18.7527 5.29C19.4618 4.40382 20.7523 4.25394 21.6457 4.954C21.9998 5.17527 22.3271 5.57794 22.6806 6.01287C23.4023 6.90076 24.2333 7.92309 25.6247 7.811L18.0027 15.456C19.371 15.2755 20.7625 15.4197 22.0647 15.877C24.1367 16.717 24.0537 19.825 24.0537 19.825V33.015C22.956 33.5557 21.6694 33.5557 20.5717 33.015C17.8628 31.7999 15.2572 30.3665 12.7807 28.729C10.77 27.5008 8.4108 26.9691 6.06768 27.216C2.17268 27.889 -0.568322 30.072 0.100678 34.272C0.431678 36.707 3.50368 38.22 6.06768 37.377L6.73168 33.927C6.2145 34.428 5.62821 34.8523 4.99068 35.187C3.74668 35.86 2.09768 36.195 1.26068 34.767C0.496154 33.5709 0.759563 31.9905 1.87068 31.107C2.22468 30.828 2.64168 30.642 3.08468 30.567C5.82487 29.8882 8.16192 31.7028 10.6219 33.6128C11.5105 34.3028 12.4152 35.0052 13.3607 35.607C15.2197 36.9723 17.6914 37.1676 19.7417 36.111L29.6877 30.146V16.634C29.6563 15.9078 29.4513 15.1996 29.0897 14.569C28.7303 13.9417 28.2242 13.4109 27.6147 13.022C26.3766 12.3169 24.9784 11.941 23.5537 11.93L31.7587 3.613L30.6817 2.689C30.4964 3.03138 30.2194 3.31534 29.8817 3.509C29.5447 3.702 29.1617 3.796 28.7757 3.781C27.7166 3.78044 26.7366 2.84629 25.7609 1.91618C24.9805 1.17233 24.2029 0.431065 23.3897 0.172C23.1807 0.0755957 22.9562 0.0173452 22.7267 0ZM68.6397 0.252L68.5557 0.319519V0.252H68.6397ZM68.5557 0.319519V29.235L69.8007 31.167L71.0407 30.242L71.3727 30.579L65.9847 34.359L65.6527 33.938L62.9187 29.906L63.8307 29.233V7.056C63.7487 6.721 63.3337 5.964 61.4277 6.049L68.5557 0.319519ZM151.848 1.349C152.55 0.772318 153.425 0.446764 154.334 0.424L154.332 0.421C155.182 0.405185 156.009 0.704348 156.653 1.261C157.158 1.61297 157.648 1.98957 158.14 2.36743C160.229 3.97241 162.348 5.60022 165.77 5.461C166.701 5.35944 167.56 4.90849 168.173 4.199L170.592 6.299L161.31 13.776L167.436 17.556V30.157C164.383 32.5165 161.202 34.7046 157.907 36.711C157.907 36.711 146.552 29.989 145.807 29.486C143.569 28.058 141.413 30.662 141.745 32.846C142.159 35.617 144.895 35.448 146.469 33.853V36.374C145.381 36.7309 144.194 36.6299 143.183 36.094C142.681 35.828 142.237 35.464 141.876 35.021C141.515 34.578 141.245 34.068 141.082 33.518C140.782 32.2199 140.901 30.8602 141.422 29.634C141.939 28.413 142.833 27.3897 143.974 26.714C146.04 25.4504 148.615 25.3549 150.77 26.462L161.875 32.93V19.575L154.83 15.206L158.145 11.844L160.051 13.02L164.119 8.905C162.655 9.261 161.139 9.347 159.644 9.157C156.638 8.73838 153.829 7.41834 151.589 5.371C150.599 4.531 149.603 4.111 148.526 5.371C148.202 5.839 148.029 6.396 148.029 6.967C148.028 7.53717 148.202 8.09393 148.526 8.563C148.828 9.17478 149.27 9.87208 149.73 10.5971C151.037 12.6582 152.486 14.9431 151.261 16.123L147.531 19.573C146.448 20.4017 144.932 20.3515 143.907 19.453C143.576 19.164 143.313 18.803 143.139 18.396L144.386 16.373C144.469 17.547 145.298 20.321 147.039 19.397C147.422 19.1385 147.695 18.7451 147.802 18.295C147.909 17.843 147.844 17.366 147.619 16.961C147.321 16.0992 146.838 15.149 146.339 14.1669C144.892 11.3213 143.309 8.20885 145.713 6.209L151.848 1.349ZM75.6847 3.53L71.8717 6.21L75.1047 10.243L78.9167 7.386L75.6847 3.53ZM185.246 6.21L189.059 3.53L192.29 7.386L188.479 10.243L185.246 6.21ZM202.071 7.059L195.026 13.023C196.352 12.771 197.181 13.195 197.181 13.696V29.656L199.998 34.108L200.247 34.529L205.219 31.079L204.971 30.659L203.727 31.499L202.069 29.146V12.517H205.551V12.013H202.069L202.071 7.059ZM248.647 14.36L252.542 11.428V11.427L258.259 15.877L259.668 14.953L260 15.373L258.591 16.297V37.805L258.176 38.225L256.022 40.242C254.538 41.2749 252.624 41.4652 250.966 40.745C250.144 40.4596 249.339 40.1057 248.548 39.7579C246.309 38.7735 244.181 37.8381 242.099 38.645C240.774 39.145 240.027 40.573 241.271 41.749L241.519 42.001C241.049 41.783 240.654 41.425 240.388 40.975C240.121 40.5241 239.996 40.0038 240.027 39.481C240.275 37.801 241.851 36.625 244.005 35.869C245.824 35.3518 247.754 35.3814 249.557 35.954C251.699 36.9722 253.996 37.6252 256.354 37.886C257.034 37.9437 257.719 37.8281 258.343 37.55C256.106 35.2276 254.581 32.3124 253.951 29.15V28.731L250.469 31.083L246.574 33.855L244.337 30.495V17.132L248.647 14.36ZM51.5667 12.181L46.5107 15.795L46.8427 16.215L47.9197 15.46L49.7447 18.15V30.75L51.8987 33.855L52.2307 34.275L57.3687 30.579L56.9537 30.243L55.7097 31.168L54.4657 29.403V16.801C57.9477 19.825 61.7597 18.061 62.2557 12.769V12.517L61.8407 12.601C60.5157 14.869 58.9477 13.862 58.1947 12.601L58.0247 12.349L54.3027 16.385L51.8147 12.601L51.5667 12.181ZM115.962 15.795L120.934 12.181V12.18L121.189 12.6L123.67 16.384L127.393 12.348L127.563 12.6C128.317 13.861 129.884 14.868 131.21 12.6L131.625 12.516V12.768C131.128 18.06 127.317 19.824 123.835 16.8V29.323L125.079 31.083L126.323 30.159L126.655 30.579L121.516 34.275L121.184 33.855L119.112 30.75V18.15L117.288 15.46L116.21 16.215L115.962 15.795ZM42.0357 12.266L33.3337 16.969V27.554L32.3407 28.31L32.5887 28.73L33.5007 28.058L37.3127 33.855L37.6437 34.275L44.8537 28.977L44.6057 28.557L41.2907 30.992L37.8877 26.035V24.943L46.3407 18.811L46.2577 18.56L42.0357 12.266ZM171.24 16.969L179.942 12.266L184.163 18.568L184.247 18.82L175.793 24.952V26.043L179.197 30.916L182.511 28.48L182.76 28.985L175.55 34.275L175.218 33.855L171.407 28.058L170.495 28.73L170.246 28.31L171.24 27.554V16.969ZM111.15 12.35L102.536 17.054V27.554L101.459 28.31L101.708 28.73L102.62 28.058L106.515 33.855L106.847 34.275L114.056 28.977L113.808 28.474L110.493 30.909L107.09 26.036V24.945L115.543 18.813L115.373 18.561L111.15 12.351V12.35ZM91.0167 14.786L94.4907 12.35V12.348L97.4827 16.296L99.3877 15.036L99.6367 15.456L97.8127 16.8V29.148L99.2227 31.418L100.467 30.578L100.716 30.998L95.7437 34.358L95.4957 33.937L93.0957 30.324V18.059L91.2717 15.287L89.1987 16.716V29.404L90.6847 31.754L87.0377 34.358L84.5417 30.828V18.144L82.6357 15.455L81.5587 16.21L81.2267 15.79L84.6307 13.437L86.2047 12.345L86.3747 12.518L88.8587 16.214L91.0167 14.786ZM76.1817 12.433L71.0427 15.963L71.2917 16.383L72.3687 15.627L74.1927 18.317V30.917L76.4307 34.022L76.6787 34.443L81.7337 30.993L81.4857 30.573L80.2417 31.413L78.9167 29.396V16.717L76.2667 12.763L76.1817 12.433ZM184.417 15.883L189.556 12.433L189.721 12.763L192.374 16.716V29.322L193.616 31.334L194.86 30.494L195.108 30.914L190.053 34.363L189.804 33.943L187.567 30.838V18.237L185.743 15.548L184.665 16.303L184.417 15.883ZM236.547 12.518L233.066 14.953L230.911 16.381L228.259 12.518L226.685 13.609L223.281 15.878L223.53 16.298L224.607 15.543L226.513 18.232V30.916L228.999 34.445L232.645 31.84L231.153 29.488V16.8L233.225 15.456L234.966 18.228V30.493L237.369 34.105L237.617 34.525L242.589 31.165L242.341 30.745L241.097 31.585L239.695 29.32V16.885L241.519 15.542L241.271 15.122L239.365 16.465L236.547 12.517V12.518ZM214.419 15.21L218.066 12.69V12.689L221.127 17.305V29.475L222.371 31.407L223.615 30.567L223.947 30.987L218.975 34.347L216.654 30.987L211.101 34.437L207.787 29.564V18.308L206.129 15.62L204.72 16.544L204.472 16.123L207.953 13.771L209.446 12.764L212.597 17.474V29.491L214.171 32.011L216.492 30.667V18.487L214.419 15.21ZM248.809 14.534L254.029 18.903V28.227L250.218 30.747L248.809 28.815V14.534ZM42.2847 21.173L37.8927 14.619V24.277L42.2847 21.173ZM175.882 14.703L180.274 21.171L175.882 24.275V14.703ZM111.405 21.169L107.095 14.788L107.013 24.274L111.405 21.169Z" fill="#050505"/>
</svg>
