<svg xmlns:xlink="http://www.w3.org/1999/xlink" xmlns="http://www.w3.org/2000/svg" width="105" height="61" viewBox="0 0 105 61" fill="none" class="inline-gu-podcast-2021__svg inline-journalism/audio__svg"><path d="M26.519 18.831H105v29.553H88.222v11.732L78.01 48.384H26.52V18.831h-.001Z" fill="#FFFFFF"></path><path d="M40.031 37.046c0 2.67-1.847 3.86-4.553 3.86a6.35 6.35 0 0 1-1.36-.15v4.163l1.343.235v.285H29.43v-.285l1.142-.252V33.873l-1.142-.252v-.285h5.73c3.427 0 4.872 1.225 4.872 3.71Zm-3.529.033c0-2.619-.554-3.424-1.68-3.424h-.705v6.765c.252.05.487.067.756.067 1.092-.001 1.63-.874 1.63-3.408Zm3.327 3.727c0-2.955 1.881-4.784 4.705-4.784 2.823 0 4.738 1.83 4.738 4.8 0 2.99-1.88 4.869-4.722 4.869-2.805 0-4.72-1.898-4.72-4.885Zm3.31.017c0 3.626.487 4.566 1.428 4.566.924 0 1.395-.957 1.395-4.583 0-3.61-.454-4.482-1.412-4.482-.924 0-1.41.89-1.41 4.499Zm12.234-4.482v-2.988L54.365 33v-.285l3.714-.537.352.05v12.389l1.025.318v.286l-3.747.42-.286-.034v-1.04h-.084c-.538.587-1.226 1.107-2.352 1.107-1.999 0-3.462-1.527-3.462-4.65 0-3.29 1.697-4.968 4.27-4.968.737-.002 1.292.133 1.578.285Zm0 7.838v-7.436c-.235-.118-.52-.219-.99-.219-.993 0-1.63 1.158-1.63 4.13 0 2.67.587 3.726 1.763 3.726.37 0 .672-.084.857-.2v-.001Zm4.2-3.373c0-2.938 1.881-4.784 4.873-4.784 1.192 0 2.25.1 2.907.302l.05 3.106h-.285l-2.25-3.072c-.068-.017-.119-.017-.186-.017-1.31 0-2.05 1.376-2.05 3.878 0 2.619.89 3.944 2.974 3.944.773 0 1.344-.134 1.831-.352v.285c-.605.823-1.663 1.561-3.378 1.561-2.99 0-4.486-1.981-4.486-4.851Zm13.275-.773v-1.225c0-1.863-.403-2.468-1.428-2.468-.118 0-.219.017-.336.033l-2.27 3.073h-.285l.067-2.854c.874-.269 1.966-.571 3.412-.571 2.487 0 3.932.688 3.932 2.77v5.975l.89.235v.235c-.352.218-1.058.42-1.83.42-1.227 0-1.815-.403-2.084-1.074h-.084c-.52.705-1.26 1.107-2.42 1.107-1.479 0-2.488-.923-2.488-2.518 0-1.544.958-2.384 2.908-2.753l2.016-.385Zm0 4.13v-3.694l-.622.05c-.974.084-1.327.705-1.327 2.083 0 1.493.487 1.88 1.176 1.88.386 0 .605-.118.773-.32v.001Zm11.274-1.545c0 1.897-1.327 3.039-3.78 3.039-1.11 0-2.253-.134-3.144-.47l-.1-2.72h.285l2.404 2.804c.168.05.352.084.504.084 1.025 0 1.495-.554 1.495-1.41 0-.755-.403-1.04-1.462-1.544l-.554-.251c-1.68-.789-2.655-1.611-2.655-3.156 0-1.88 1.31-2.989 3.562-2.989.924 0 1.932.084 2.706.302l.084 2.536h-.286l-1.83-2.452a1.883 1.883 0 0 0-.589-.1c-.907 0-1.31.52-1.31 1.275 0 .822.386 1.09 1.512 1.611l.52.235c1.731.806 2.638 1.528 2.638 3.206Zm-.118-5.74v-.302l1.31-.336v-1.812l3.06-.487v2.3h2.033v.638h-2.034v6.11c0 .94.286 1.326 1.294 1.326.32 0 .638-.034.84-.084v.285c-.538.57-1.462 1.107-2.555 1.107-1.747 0-2.638-.805-2.638-2.786v-5.959h-1.31Zm13.948 5.74c0 1.897-1.327 3.039-3.78 3.039-1.11 0-2.254-.134-3.144-.47l-.1-2.72h.285l2.403 2.804c.168.05.353.084.504.084 1.025 0 1.495-.554 1.495-1.41 0-.755-.403-1.04-1.46-1.544l-.555-.251c-1.68-.789-2.656-1.611-2.656-3.156 0-1.88 1.31-2.989 3.563-2.989.924 0 1.932.084 2.706.302l.084 2.536h-.286l-1.83-2.453a1.882 1.882 0 0 0-.589-.1c-.907 0-1.31.52-1.31 1.275 0 .822.386 1.09 1.511 1.611l.521.235c1.73.806 2.638 1.528 2.638 3.206v.001Z" fill="#121212"></path><path d="M78.481 0H0v29.553h16.778v11.731L26.99 29.553h51.49V0h.001Z" fill="#071566"></path><path d="m19.038 15.24 1.157-.235V4.556H19.1l-1.97 2.968h-.266l.125-3.28h9.694l.125 3.28h-.265l-1.94-2.968h-1.11v10.449l1.157.235v.266h-5.613v-.266h.001Zm8.921-.28V3.637l-.995-.397v-.28l3.595-.53.381.05v4.98h.1c.78-.794 1.94-1.241 3.081-1.241 1.575 0 2.27.744 2.27 2.4v6.34l.945.264v.282h-4.804v-.282l.844-.216V8.785c0-.894-.397-1.291-1.176-1.291-.48 0-.86.132-1.21.314v7.2l.83.216v.282h-4.806v-.282l.945-.265v.001Zm12.096-4.304c.117 2.234.83 3.608 3.15 3.608.761 0 1.408-.1 2.021-.364v.265c-.514.778-1.774 1.588-3.58 1.588-3.064 0-4.639-1.853-4.639-4.816 0-2.898 1.723-4.702 4.507-4.702 2.8 0 3.977 1.49 3.977 4.189v.23h-5.436v.002Zm0-.332 2.568-.116c0-2.83-.38-3.642-1.177-3.642-.86.001-1.39 1.16-1.39 3.758ZM3.198 20.356c0-4.602 3.05-6.24 6.446-6.24 1.441 0 2.784.182 3.563.513l.066 2.863h-.282l-2.254-3.012c-.282-.034-.58-.034-.862-.034-1.905 0-2.883 1.523-2.883 5.677 0 4.634.745 6.009 2.453 6.009.381 0 .712-.066.944-.165V20.95l-1.093-.199v-.281h5.07v.281l-.862.2v4.832c-.895.348-2.402.679-3.993.679-3.86 0-6.313-1.787-6.313-6.107v.001Zm10.997-2.532v-.282l3.63-.53.396.034V23.9c0 1.01.43 1.29 1.16 1.29.414 0 .78-.115 1.127-.264v-6.704l-1.425-.397v-.282l4.06-.53.365.034v8.16l.978.397v.282l-3.58.563-.364-.033v-1.192h-.1c-.679.679-1.59 1.258-2.718 1.258-1.74 0-2.535-1.026-2.535-2.582v-5.677l-.994-.398v-.001Zm15.415 3.095v-1.208c0-1.821-.398-2.417-1.525-2.417-.133 0-.248.017-.38.034l-2.006 2.714h-.282v-2.5c.861-.265 1.94-.579 3.363-.579 2.453 0 3.877.679 3.877 2.731v5.893l.88.231v.231c-.349.215-1.045.414-1.807.414-1.21 0-1.79-.397-2.055-1.06h-.082c-.514.695-1.244 1.093-2.386 1.093-1.458 0-2.453-.91-2.453-2.482 0-1.522.945-2.35 2.867-2.715l1.988-.38h.001Zm0 4.07v-3.64l-.614.048c-.96.083-1.309.696-1.309 2.052 0 1.474.48 1.855 1.16 1.855.38 0 .596-.115.762-.314l.001-.001Zm8.244-7.976.298.033v2.565h.083c.465-1.97 1.227-2.698 2.254-2.698.165 0 .348.017.446.066v2.732c-.166-.05-.464-.067-.745-.067-.828 0-1.44.082-1.972.298v5.776l1.227.249v.281h-5.203v-.281l.944-.248V18.22l-.995-.397v-.282l3.663-.53v.002Zm8.99.264v-2.946l-.994-.347v-.282l3.662-.53.348.05v12.215l1.01.314v.281l-3.694.414-.282-.034v-.943h-.083c-.53.53-1.21 1.01-2.32 1.01-1.97 0-3.412-1.506-3.412-4.585 0-3.244 1.673-4.9 4.208-4.9.727.002 1.274.134 1.556.284v-.001Zm0 7.895V17.69c-.232-.116-.514-.215-.979-.215-.978 0-1.607 1.143-1.607 4.138 0 2.681.58 3.741 1.74 3.741.364 0 .663-.083.845-.182Zm8.071-8.159.414.033v8.657l.928.265v.282h-4.904v-.282l.944-.265V18.22l-1.01-.397v-.282l3.628-.53v.002Zm.43-2.152c0 .877-.745 1.54-1.607 1.54-.895 0-1.59-.663-1.59-1.54s.695-1.556 1.59-1.556c.862 0 1.607.679 1.607 1.556Zm6.091 6.058v-1.208c0-1.821-.397-2.417-1.524-2.417-.132 0-.248.017-.38.034l-2.007 2.714h-.282v-2.5c.862-.265 1.938-.579 3.364-.579 2.453 0 3.877.679 3.877 2.731v5.893l.878.231v.231c-.348.215-1.044.414-1.806.414-1.21 0-1.789-.397-2.054-1.06h-.083c-.513.695-1.243 1.093-2.385 1.093-1.458 0-2.453-.91-2.453-2.482 0-1.522.944-2.35 2.867-2.715l1.988-.38Zm0 4.07v-3.64l-.613.048c-.96.083-1.31.696-1.31 2.052 0 1.474.482 1.855 1.161 1.855.38 0 .596-.115.762-.314v-.001Zm5.317.713V18.22l-.994-.397v-.282l3.612-.53.365.034v1.16h.1c.778-.796 1.94-1.242 3.082-1.242 1.575 0 2.27.745 2.27 2.4v6.34l.945.265v.282h-4.805v-.282l.845-.215V19.53c0-.894-.397-1.291-1.176-1.291-.48 0-.862.133-1.21.314v7.2l.828.215v.282H65.81v-.282l.943-.266Z" fill="#FFFFFF"></path>
       </svg>