<svg xmlns="http://www.w3.org/2000/svg" xmlns:xlink="http://www.w3.org/1999/xlink" xmlns:serif="http://www.serif.com/" width="400" height="95" viewBox="0 0 400 95" version="1.1" xml:space="preserve" style="fill-rule:evenodd;clip-rule:evenodd;stroke-linejoin:round;stroke-miterlimit:1.41421;">
    <path d="M270.721,71.244L266.105,38.234L265.528,38.234L260.912,71.244L241.421,71.244L230.473,3.868L245.682,3.868L251.682,49.936L252.258,49.941L259.131,3.868L272.504,3.868L279.379,49.941L279.952,49.936L285.952,3.868L301.161,3.868L290.214,71.244L270.721,71.244Z" style="fill:rgb(240,65,50);fill-rule:nonzero;"/>
    <path d="M1.667,83.777L2.642,82.874C6.357,79.442 7.755,77.231 7.755,73.186L7.755,22.941L21.627,22.941L21.627,75.092C21.627,80.48 18.687,84.683 9.549,92.308L1.667,83.777Z" style="fill:rgb(35,31,32);fill-rule:nonzero;"/>
    <path d="M41.125,72.246C33.756,72.246 30.174,67.22 30.174,56.88L30.174,22.941L44.046,22.941L44.046,54.973C44.046,57.496 45.326,58.776 47.851,58.776C50.485,58.776 55.349,56.971 58.531,55.228L58.682,55.144L58.682,22.941L72.555,22.941L72.555,71.244L62.3,71.244L60.752,67.423L60.473,67.559C54.669,70.363 46.894,72.246 41.125,72.246" style="fill:rgb(35,31,32);fill-rule:nonzero;"/>
    <path d="M110.161,71.244L110.161,39.211C110.161,36.687 108.881,35.407 106.357,35.407C103.724,35.407 98.859,37.212 95.677,38.956L95.526,39.039L95.526,71.244L81.653,71.244L81.653,22.94L91.906,22.94L93.454,26.76L93.735,26.624C99.536,23.82 107.31,21.937 113.082,21.937C120.45,21.937 124.033,26.963 124.033,37.305L124.033,71.244L110.161,71.244Z" style="fill:rgb(35,31,32);fill-rule:nonzero;"/>
    <path d="M199.504,72.246C184.975,72.246 177.912,65.841 177.912,52.663L177.912,41.219C177.912,28.424 184.872,21.936 198.601,21.936C216.064,21.936 218.084,33.342 218.084,41.922L218.084,51.868L191.785,51.868L191.785,53.564C191.785,59.249 193.915,60.983 200.908,60.983C205.534,60.983 211.364,60.171 215.54,58.955L217.54,69.235C213.569,70.644 206.567,72.246 199.504,72.246M198.702,32.697C192.985,32.697 191.786,36.24 191.786,39.211L191.786,41.611L205.015,41.611L205.015,39.211C205.015,36.179 204.298,32.697 198.702,32.697" style="fill:rgb(35,31,32);fill-rule:nonzero;"/>
    <path d="M322.645,72.246C308.116,72.246 301.053,65.841 301.053,52.663L301.053,41.219C301.053,28.424 308.013,21.936 321.741,21.936C339.205,21.936 341.226,33.342 341.226,41.922L341.226,51.868L314.925,51.868L314.925,53.564C314.925,59.249 317.058,60.983 324.05,60.983C328.675,60.983 334.503,60.171 338.682,58.955L340.681,69.235C336.709,70.644 329.705,72.246 322.645,72.246M321.841,32.697C316.126,32.697 314.925,36.24 314.925,39.211L314.925,41.611L328.155,41.611L328.155,39.211C328.155,36.179 327.438,32.697 321.841,32.697" style="fill:rgb(35,31,32);fill-rule:nonzero;"/>
    <path d="M348.284,71.244L348.284,2.927L362.158,1L362.158,71.244L348.284,71.244Z" style="fill:rgb(35,31,32);fill-rule:nonzero;"/>
    <path d="M387.796,72.246C377.928,72.246 373.332,68.351 373.332,59.99L373.332,34.003L366.706,34.003L366.706,22.941L373.332,22.941L373.332,11.159L387.205,9.231L387.205,22.941L398.326,22.941L397.562,34.003L387.205,34.003L387.205,57.983C387.205,59.973 388.315,60.984 390.508,60.984C391.473,60.984 393.909,60.901 396.295,60.17L397.912,70.534C394.698,71.607 390.937,72.246 387.796,72.246" style="fill:rgb(35,31,32);fill-rule:nonzero;"/>
    <path d="M9.111,16.054C8.238,16.054 7.529,15.344 7.529,14.471L7.529,3.538C7.529,2.665 8.238,1.955 9.111,1.955L20.044,1.955C20.916,1.955 21.627,2.665 21.627,3.538L21.627,14.471C21.627,15.345 20.917,16.054 20.044,16.054L9.111,16.054Z" style="fill:rgb(240,65,50);fill-rule:nonzero;"/>
    <path d="M159.281,22.686C156.604,22.016 153.903,21.691 151.021,21.691C137.99,21.691 131.551,26.819 131.336,37.36L131.336,42.506C131.336,48.346 133.325,52.368 137.418,54.805L137.74,54.996L137.476,55.26C135.33,57.406 133.345,59.948 133.345,63.989C133.345,70.337 136.627,72.577 143.522,73.308L146.014,73.559C149.941,73.952 152.157,74.019 156.814,74.442C157.95,74.56 159.194,74.789 159.248,75.943C159.302,77.098 157.057,80.357 153.974,83.204L152.999,84.108L160.595,92.309C163.94,89.517 166.451,87.186 168.296,85.086C171.456,81.486 172.647,78.569 172.672,75.198C172.284,68.438 169.114,64.96 161.135,64.278C160.294,64.208 159.543,64.142 158.801,64.077C156.391,63.86 154.065,63.621 148.982,63.073C147.902,62.953 147.118,61.988 147.118,60.776C147.118,59.166 148.418,58.385 149.368,57.817L149.437,57.775L151.023,57.775C153.909,57.775 156.507,57.475 158.802,56.9C166.457,54.984 170.708,49.971 170.708,42.505L170.708,37.373C170.602,35.043 170.159,32.89 169.425,31.149L169.308,30.868L172.675,29.632L174.321,29.027L174.321,22.694L159.281,22.686ZM157.837,41.803C157.837,45.384 155.797,46.912 151.021,46.912C146.245,46.912 144.205,45.384 144.205,41.803L144.205,37.962C144.205,34.271 146.372,32.551 151.021,32.551C155.671,32.551 157.837,34.271 157.837,37.962L157.837,41.803Z" style="fill:rgb(35,31,32);fill-rule:nonzero;"/>
</svg>