<svg xmlns="http://www.w3.org/2000/svg" data-name="Layer 1" viewBox="0 0 602.8 86" aria-hidden="true"
     class="footer-component__more-infos-logo">
    <defs>
        <style>.cls-1{fill:#000;}</style>
    </defs>
    <path class="cls-1"
          d="M31.8,58.9V20.7c0-4.1-.6-6.9-1.8-8.5s-3.4-2.6-6.6-3.1V8.3H54.5v.8c-3.1.5-5.2,1.5-6.5,3s-1.9,4.4-1.9,8.5V58.8c0,4.1.6,7,1.9,8.5s3.4,2.6,6.5,3.1v.8H23.4v-.8c3.2-.5,5.4-1.5,6.6-3.1S31.8,63,31.8,58.9ZM96.4,72a143.27,143.27,0,0,1-14.9-.6A25,25,0,0,1,72.8,69c-2.3-1.2-4.8-3.5-7.6-6.9A189.91,189.91,0,0,1,51.5,42.3L60.7,32c3,4.3,7.2,9.8,12.5,16.8S82.5,60.5,85,63.1a45.27,45.27,0,0,0,5.8,5.4,15.3,15.3,0,0,0,5.6,2.7ZM93.9,8.3v.8c-3.2.3-6.7,1.7-10.5,4s-9.1,6.5-15.8,12.3l-.5-.6c3.1-3.5,4.6-6.7,4.6-9.4,0-3.8-2.7-5.9-8.2-6.3V8.3Z"
          transform="translate(-23.4 -8.3)"></path>
    <path class="cls-1"
          d="M116.9,27.4V63.1c0,2.8.5,4.8,1.6,6a8.07,8.07,0,0,0,5.1,2.2V72h-25v-.7c2.3-.3,3.9-1,4.6-2.2s1.1-3.1,1.1-6.1V40.5a7.69,7.69,0,0,0-1-4.2,10.43,10.43,0,0,0-3.8-3v-.6l17.1-5.5Zm13,14.7a6.37,6.37,0,0,1-4.5-1.6,5.45,5.45,0,0,1-1.8-4.2,5.26,5.26,0,0,1,1.3-3.9c-.1-.2-.3-.3-.8-.3-1.9,0-3.5,1.2-4.9,3.7v-.4a11,11,0,0,1,3.7-5.5,9.33,9.33,0,0,1,6-2.5,8,8,0,0,1,5.8,2,7.73,7.73,0,0,1,2,5.5,6.8,6.8,0,0,1-1.9,5.2A6.14,6.14,0,0,1,129.9,42.1Z"
          transform="translate(-23.4 -8.3)"></path>
    <path class="cls-1"
          d="M157.2,66.8a6.76,6.76,0,0,0,3.7-.9v.4c-.5,1.5-1.8,2.9-3.8,4.3a11.81,11.81,0,0,1-6.9,2.2c-3.4,0-6-1-7.9-3a10.5,10.5,0,0,1-2.9-7.5,11.58,11.58,0,0,1,1.4-5.8,6.74,6.74,0,0,1,2.7-3c3.1-1.3,8.6-2.8,16.5-4.7v.7c-3.5,1.3-5.7,2.5-6.7,3.8a10.22,10.22,0,0,0-1.6,5.9C151.7,64.3,153.6,66.8,157.2,66.8ZM142.3,39.3a5.07,5.07,0,0,1,1.6-3.8,5.2,5.2,0,0,1,3.8-1.5,5.37,5.37,0,0,1,3.8,1.5,5.2,5.2,0,0,1,1.5,3.8,5.37,5.37,0,0,1-1.5,3.8,4.92,4.92,0,0,1-3.8,1.6,5.07,5.07,0,0,1-3.8-1.6A4.78,4.78,0,0,1,142.3,39.3Zm6.5-7.3v-.3a26.58,26.58,0,0,1,6.1-3.1,19.74,19.74,0,0,1,6.7-1.3c9,0,13.5,4.3,13.5,12.8V62.6c0,2.9,1.3,4.4,3.8,4.4a5.43,5.43,0,0,0,2.9-.7v.5a10.17,10.17,0,0,1-3.6,4.2,11.08,11.08,0,0,1-6.5,1.8,9,9,0,0,1-6.8-2.6c-1.6-1.7-2.3-4.3-2.3-7.6V40.7Q162.6,32,148.8,32Z"
          transform="translate(-23.4 -8.3)"></path>
    <path class="cls-1"
          d="M188.9,59.6V38.8c0-3-.3-5-1-6s-2.4-1.8-5-2.2v-.8l18.5-1.9.2.1V56.9c0,3.3.5,5.5,1.6,6.8s2.9,2,5.5,2a10.77,10.77,0,0,0,6-1.6v.4c-3.1,5.6-7.5,8.4-13.4,8.4C193,72.9,188.9,68.5,188.9,59.6ZM229.4,28V62a10.71,10.71,0,0,0,.7,4.7,3.73,3.73,0,0,0,2.4,1.8l3.3.9V70l-18.6,2.7-.3-.1V38.8c0-3-.4-5-1.1-6s-2.5-1.8-5.1-2.2v-.8l18.6-1.9Z"
          transform="translate(-23.4 -8.3)"></path>
    <path class="cls-1"
          d="M254.9,72.9c-8,0-12-4-12-11.9V33.5h-5.3V32.1l16.8-15.2,1.1.5V28.5h14.2l-1,5H255.5V57.3c0,5.5,2.7,8.3,8,8.3a20.33,20.33,0,0,0,7-1v.5c-1.1,1.9-3.2,3.6-6.1,5.3A20.42,20.42,0,0,1,254.9,72.9Z"
          transform="translate(-23.4 -8.3)"></path>
    <path class="cls-1"
          d="M292.1,27.4V63.1c0,2.8.5,4.8,1.6,6a8.07,8.07,0,0,0,5.1,2.2V72h-25v-.7c2.3-.3,3.9-1,4.6-2.2s1.1-3.1,1.1-6.1V40.5a7.69,7.69,0,0,0-1-4.2,10.43,10.43,0,0,0-3.8-3v-.6l17.1-5.5Zm13,14.7a6.37,6.37,0,0,1-4.5-1.6,5.45,5.45,0,0,1-1.8-4.2,5.26,5.26,0,0,1,1.3-3.9c-.1-.2-.3-.3-.8-.3-1.9,0-3.5,1.2-4.9,3.7v-.4a11,11,0,0,1,3.7-5.5,9.33,9.33,0,0,1,6-2.5,8,8,0,0,1,5.8,2,7.73,7.73,0,0,1,2,5.5,6.8,6.8,0,0,1-1.9,5.2A6.48,6.48,0,0,1,305.1,42.1Z"
          transform="translate(-23.4 -8.3)"></path>
    <path class="cls-1"
          d="M333.9,27.5v.8c-2.1.6-3.8,2.4-5.1,5.3s-1.9,6.9-1.9,11.8c0,5.6,1.3,10,4,13.2a13.29,13.29,0,0,0,10.9,4.9c5.7,0,10-1.9,12.8-5.8l.6.4c-.9,3.4-3.1,6.7-6.5,9.9s-7.8,4.8-13.2,4.8c-6.5,0-11.7-2.1-15.4-6.4a23.14,23.14,0,0,1-5.6-15.6A23.3,23.3,0,0,1,320.1,35,20.77,20.77,0,0,1,333.9,27.5ZM353.5,43H330.2v-.7L342,41.1c-.4-8.1-2.2-12.4-5.5-13v-.8c5.3.2,9.4,1.8,12.5,4.8A15.12,15.12,0,0,1,353.5,43Z"
          transform="translate(-23.4 -8.3)"></path>
    <path class="cls-1"
          d="M387.2,72.4a15.54,15.54,0,0,1-4.6.3,17.54,17.54,0,0,1-6.2-1V85.2c0,2.8.5,4.8,1.6,6a8.2,8.2,0,0,0,5.3,2.3v.8H358.1v-.8c2.3-.3,3.9-1,4.7-2.1s1.1-3.1,1.1-6.2V40.7a7.09,7.09,0,0,0-2.7-5.9,11.05,11.05,0,0,0-2.3-1.5v-.5l17.3-5.6.2.2V58c0,4.7,1,8.1,2.9,10.3,1.7,1.9,4.3,3,7.9,3.3v.8Zm3.3-.8v-.8c2-1.3,3.6-3.7,4.8-7.3a38.55,38.55,0,0,0,1.9-12.2c0-5.7-1.1-10.2-3.2-13.3s-5.3-4.7-9.6-4.7a13.52,13.52,0,0,0-6.1,1.2v-.2a18,18,0,0,1,6.2-4.8,19,19,0,0,1,8.2-2.2c6.2,0,10.7,1.9,13.5,5.6s4.2,8.5,4.2,14.4C410.4,60,403.7,68.1,390.5,71.6Z"
          transform="translate(-23.4 -8.3)"></path>
    <path class="cls-1"
          d="M430.2,50.7q0,16.65,6.6,20.1a8.6,8.6,0,0,0,3.5,1.2v.8c-6.7-.2-12.3-2.3-16.8-6.5s-6.7-9.4-6.7-16a21,21,0,0,1,6.5-15.9,25.63,25.63,0,0,1,15.4-7.1V28a7.41,7.41,0,0,0-5,3.4C431.4,34.8,430.2,41.2,430.2,50.7Zm21.5-1.3c0-11.2-2.2-18-6.5-20.3a8.51,8.51,0,0,0-3.5-1v-.8a25,25,0,0,1,16.7,6.5c4.5,4.1,6.7,9.5,6.7,16s-2.1,11.7-6.4,15.8a27.28,27.28,0,0,1-15.5,7.2V72a7.51,7.51,0,0,0,5-3.6C450.6,65.3,451.7,58.9,451.7,49.4Z"
          transform="translate(-23.4 -8.3)"></path>
    <path class="cls-1"
          d="M486.3,27.4V63.1c0,2.8.5,4.8,1.6,6a8.68,8.68,0,0,0,5.1,2.3v.7H468v-.7c2.3-.3,3.9-1,4.6-2.2s1.2-3.1,1.2-6.1V40.6a7.69,7.69,0,0,0-1-4.2,11.63,11.63,0,0,0-3.8-3.1v-.6l17.1-5.5Zm13,14.7a6.86,6.86,0,0,1-4.5-1.6,5.44,5.44,0,0,1-1.7-4.3,5.26,5.26,0,0,1,1.3-3.9c-.1-.2-.3-.3-.8-.3-1.9,0-3.5,1.2-4.9,3.7v-.4a11,11,0,0,1,3.7-5.5,9.2,9.2,0,0,1,6-2.4,7.63,7.63,0,0,1,5.8,2.1,7.73,7.73,0,0,1,2,5.5,6.55,6.55,0,0,1-6.9,7.1Z"
          transform="translate(-23.4 -8.3)"></path>
    <path class="cls-1"
          d="M527.4,72.7c-8,0-12-4-12-11.9V33.3h-5.3V31.9l16.8-15.2,1.1.5V28.3h14.2l-1,5H528V57.1c0,5.5,2.7,8.3,8,8.3a20.33,20.33,0,0,0,7-1v.5c-1.1,1.9-3.2,3.6-6.1,5.3A19,19,0,0,1,527.4,72.7Z"
          transform="translate(-23.4 -8.3)"></path>
    <path class="cls-1"
          d="M565.3,27.4v.8c-2.1.6-3.8,2.4-5.1,5.3s-1.9,6.9-1.9,11.8c0,5.6,1.3,10,4,13.2a13.29,13.29,0,0,0,10.9,4.9c5.7,0,10-1.9,12.8-5.8l.6.4c-.9,3.4-3.1,6.7-6.5,9.9s-7.8,4.8-13.2,4.8c-6.5,0-11.7-2.1-15.4-6.4a23.14,23.14,0,0,1-5.6-15.6,22.89,22.89,0,0,1,5.7-15.8A20.74,20.74,0,0,1,565.3,27.4Zm19.6,15.5H561.6v-.7L573.4,41c-.4-8.1-2.2-12.4-5.5-13v-.8c5.3.2,9.4,1.8,12.5,4.8A15.12,15.12,0,0,1,584.9,42.9Z"
          transform="translate(-23.4 -8.3)"></path>
    <path class="cls-1"
          d="M606.4,27.4V63.1c0,2.8.5,4.8,1.6,6a8.07,8.07,0,0,0,5.1,2.2V72h-25v-.7c2.3-.3,3.9-1,4.7-2.2s1.1-3.1,1.1-6.1V40.5a7.69,7.69,0,0,0-1-4.2,10.43,10.43,0,0,0-3.8-3v-.6l17.1-5.5Zm13,14.7a6.37,6.37,0,0,1-4.5-1.6,5.45,5.45,0,0,1-1.8-4.2,5.26,5.26,0,0,1,1.3-3.9c-.1-.2-.3-.3-.8-.3-1.9,0-3.5,1.2-4.9,3.7v-.4a11,11,0,0,1,3.7-5.5,9.33,9.33,0,0,1,6-2.5,8,8,0,0,1,5.8,2,7.73,7.73,0,0,1,2,5.5,6.85,6.85,0,0,1-2,5.2A6.25,6.25,0,0,1,619.4,42.1Z"
          transform="translate(-23.4 -8.3)"></path>
</svg>