<svg xmlns:xlink="http://www.w3.org/1999/xlink" xmlns="http://www.w3.org/2000/svg" width="436" height="41" viewBox="0 -.12 436 41">
  <defs/>
  <path d="M197.268 30.953c3.664 0 6.424-3.543 8.45-6.828-.561 2.264-1.553 6.785 1.897 6.785 2.284 0 4.569-1.961 5.389-3.84l-.56-.982c-.819 1.152-2.07 2.689-3.924 2.947-.172-.514-.216-.939-.216-1.453 0-1.15.474-2.732.992-4.48l4.958-18.44c.259-.981 1.293-3.756 1.596-4.354h-.95l-7.285 1.365v.897l2.37.426c1.208.257 1.423.47 1.251 1.238 0 0-2.156 7.341-2.112 7.384-.432-.81-1.811-1.622-3.493-1.622-8.062 0-12.55 8.223-12.55 15.649.001 3.628 1.729 5.308 4.187 5.308m1.552-2.688c-1.164 0-1.724-.684-1.724-3.373 0-6.487 3.622-13.018 8.58-13.018 1.293 0 2.329.341 3.062 1.066l-2.328 8.408c-1.511 2.989-4.917 6.917-7.59 6.917m26.715-22.792c2.069 0 2.759-1.964 2.759-3.458 0-1.366-.689-2.135-1.38-2.135-2.198 0-2.888 2.006-2.888 3.5.001 1.324.777 2.093 1.509 2.093m-4.828 25.437c2.328 0 4.957-1.963 5.776-3.84l-.56-.982c-.82 1.152-2.371 2.689-4.269 2.902-.044-.299-.087-.598-.087-.939 0-.98.302-2.262.604-3.328l2.976-10.671s.992-3.329 1.38-4.097h-1.466l-6.511 1.195v.939l2.198.384c1.381.255 1.64.469 1.208 1.834l-3.234 10.585c-.946 3.115-1.336 6.018 1.985 6.018m4.781 9.732h11.382V39.49l-3.492-.555c-.949-.17-1.033-.426-.732-1.58l2.155-8.066c.733.854 2.197 1.621 3.88 1.621 7.502 0 11.813-7.98 11.813-15.45 0-3.244-1.509-5.506-3.967-5.506-3.795 0-6.639 3.628-8.408 6.873l.992-3.799c.604-2.348-.171-3.073-1.465-3.073l-5.433 1.195v.939l2.241.384c1.423.255 1.596.597 1.207 1.878l-6.897 23.476c-.129.684-.302.896-.733 1.023l-2.543.684v1.108zm12.718-11.566c-1.38 0-2.242-.299-3.147-.982l2.285-8.365c1.466-3.03 4.958-7.128 7.2-7.128 1.682 0 2.112 1.237 2.112 3.756 0 6.018-3.363 12.719-8.45 12.719m18.04 1.834c2.328 0 4.872-1.92 5.777-3.84l-.561-.982c-.776 1.109-2.414 2.689-4.268 2.902-.044-.256-.087-.555-.087-.854 0-.982.431-2.305.775-3.457l5.304-20.019c.258-.981.887-3.756 1.188-4.353h-.628l-7.242 1.365v.898l2.371.425c1.25.257 1.465.47 1.25 1.238l-5.82 20.787c-.903 2.987-1.378 5.89 1.941 5.89m15.827 0c6.682 0 11.597-7.426 11.597-14.511 0-4.268-2.803-6.402-6.467-6.402-6.726 0-11.598 7.169-11.598 14.257 0 4.224 2.327 6.656 6.468 6.656m1.378-1.877c-3.233 0-4.096-1.879-4.096-4.695 0-6.871 3.751-12.591 6.596-12.591 3.019 0 3.924 1.708 3.924 4.61 0 6.871-3.621 12.676-6.424 12.676m38.918 1.877c2.284 0 4.784-1.92 5.733-3.84l-.561-.982c-.69 1.152-2.242 2.689-4.313 2.902-.043-.342-.086-.641-.086-.939 0-.98.346-1.963.733-3.113l2.5-8.196c.389-1.281.776-2.476.776-3.458 0-2.049-1.077-3.329-3.492-3.329-3.319 0-6.337 3.5-9.27 8.921l.776-2.476c.303-1.152.647-2.262.647-3.117 0-2.049-.992-3.329-3.277-3.329-3.793 0-6.338 3.542-9.226 8.964l1.51-5.763c.646-2.518-.173-3.201-1.467-3.201l-5.39 1.195v.939l2.243.384c1.422.256 1.552.64 1.207 1.878l-4.742 16.136h3.578l2.5-9.307c2.847-4.653 5.908-8.537 8.494-8.537.818 0 1.207.427 1.207 1.324 0 .639-.259 1.622-.561 2.646l-4.139 13.874h3.621l2.502-9.35c2.845-4.61 6.424-8.494 8.406-8.494.905 0 1.25.427 1.25 1.324 0 .639-.216 1.622-.56 2.646l-2.674 8.409c-.986 3.287-1.246 5.889 2.075 5.889m13.464.043c3.577 0 6.165-3.584 8.147-6.699-.517 2.176-1.38 6.656 2.07 6.656 2.242 0 4.57-1.963 5.388-3.84l-.56-.982c-.818 1.152-2.112 2.689-3.924 2.902-.129-.426-.258-.811-.258-1.236 0-1.195.388-2.563.905-4.482l2.587-9.347c.432-1.623 1.207-3.373 1.466-3.97h-.777l-3.232 1.75c-.432-.811-1.683-1.707-3.449-1.707-7.977 0-12.202 8.024-12.202 15.493 0 3.712 1.511 5.462 3.839 5.462m1.596-2.688c-1.382 0-1.596-.813-1.596-3.373 0-6.359 3.708-13.018 8.407-13.018 1.38 0 2.372.341 3.062 1.11l-2.458 8.323c-1.51 2.987-4.786 6.958-7.415 6.958m21.638 2.604c3.189 0 5.905-2.135 7.113-5.037l-1.078-.811c-.604 1.578-2.242 3.627-4.742 3.627-.387-.598-.518-1.322-.518-2.389 0-.982.604-3.588.948-4.824l2.501-8.621h4.916v-1.879h-4.398l1.725-6.146h-1.076l-3.881 5.634-4.052 1.239v1.152h3.491l-2.846 9.475c-.389 1.279-.905 3.756-.905 4.781-.001 2.73 1.422 3.799 2.802 3.799m19.68-25.396c2.069 0 2.759-1.964 2.759-3.458 0-1.366-.689-2.135-1.38-2.135-2.198 0-2.889 2.006-2.889 3.5.001 1.324.777 2.093 1.51 2.093m-4.829 25.437c2.328 0 4.959-1.963 5.777-3.84l-.561-.982c-.818 1.152-2.371 2.689-4.268 2.902-.043-.299-.087-.598-.087-.939 0-.98.302-2.262.604-3.328l2.975-10.671s.992-3.329 1.38-4.097h-1.466l-6.511 1.195v.939l2.2.384c1.379.255 1.638.469 1.207 1.834l-3.233 10.585c-.948 3.115-1.336 6.018 1.983 6.018m12.354 9.732h11.165V39.49l-2.111-.514c-.69-.168-.733-.424-.562-1.15l7.022-23.902 1.25-3.97h-.861l-2.803 1.75c-.475-.811-1.897-1.707-3.535-1.707-8.063 0-12.331 8.066-12.331 15.493 0 3.629 1.553 5.463 3.968 5.463 3.707 0 6.51-3.67 8.536-7l-4.954 13.873c-.128.426-.301.768-.948.896l-3.836.768v1.152zm2.84-12.377c-1.293 0-1.811-.684-1.811-3.373 0-6.487 3.709-13.018 8.579-13.018 1.338 0 2.329.298 3.019 1.024l-2.155 8.324c-1.51 2.945-5.046 7.043-7.632 7.043m20.794 2.645c3.535 0 5.906-3.242 8.839-8.406l-.604 2.047c-.947 3.373-.861 6.359 2.026 6.359 2.328 0 4.613-1.963 5.476-3.84l-.561-.982c-.818 1.152-2.026 2.689-3.966 2.902-.087-.469-.174-.854-.174-1.322 0-1.152.39-2.689.864-4.482l2.543-9.261c.431-1.537.991-3.287 1.292-3.97h-1.164l-2.586 1.58-2.501 8.451c-2.803 4.525-5.69 8.238-8.234 8.238-.906 0-1.25-.428-1.25-1.324 0-.639.301-1.578.604-2.604l2.587-8.365c1.034-3.373 1.725-5.976-1.509-5.976-2.415 0-4.57 1.921-5.519 3.841l.561.981c.819-1.152 1.982-2.517 3.967-2.731.086 1.025-.518 2.691-.992 4.013l-2.544 8.067c-.389 1.195-.732 2.346-.732 3.371-.001 2.047.991 3.413 3.577 3.413m25.446 0c3.535 0 6.898-2.389 8.623-5.932l-.992-.725c-1.811 3.285-4.354 4.352-6.94 4.352-1.036-.17-2.544-1.408-2.544-4.268 0-1.365.172-2.816.302-3.457l4.44-.812c4.182-.767 7.76-2.304 7.76-6.061 0-2.346-1.422-4.054-4.829-4.054-7.112 0-11.597 7.641-11.597 14.384 0 4.268 2.156 6.573 5.777 6.573m-1.25-11.396c.689-3.457 3.536-7.98 6.51-7.98 1.337 0 1.941.767 1.941 2.39 0 2.646-2.458 4.139-4.657 4.737l-3.794.853M16.924 30.486v-6.174H7.122V3.611H0v26.875h16.924zm22.211 0v-5.992H27.536v-4.939h7.968v-5.992h-7.968v-3.96h11.423V3.611h-18.44v26.875h18.616zm40.278 0V3.611h-9.766l-3.773 16.27h-.07l-3.807-16.27H51.982v26.875h6.171v-17.25h.07l4.231 17.25h5.852l4.231-17.25h.071v17.25h6.805zm27.923-13.438c0-9.115-4.336-13.945-12.093-13.945-7.721 0-12.092 4.83-12.092 13.945s4.372 13.945 12.092 13.945c7.757.001 12.093-4.829 12.093-13.945m-7.192 0c0 4.902-1.34 7.881-4.901 7.881s-4.9-2.979-4.9-7.881 1.34-7.881 4.9-7.881c3.561 0 4.901 2.979 4.901 7.881m33.529 13.438V3.611h-6.487v14.163h-.071l-9.519-14.163h-6.522v26.875h6.487V15.777h.07l9.873 14.708h6.169zm26.726-13.438c0-9.042-5.395-13.437-13.256-13.437h-8.921v26.875h7.968c8.356 0 14.209-4.395 14.209-13.438m-7.193 0c0 4.975-2.433 7.299-6.699 7.299h-1.164V9.75h1.128c4.268 0 6.735 2.287 6.735 7.298m29.404 13.438v-5.992h-11.599v-4.939h7.968v-5.992h-7.968v-3.96h11.423V3.611h-18.439v26.875h18.615"/>
</svg>