<svg xmlns="http://www.w3.org/2000/svg" viewBox="0 0 205.756 42">
    <description>Missy Magazine</description>
    <g transform="translate(-19 -43.8)">
        <path d="M216.671,165.692v-1.98h5v-2.562h-5v-1.7h5.64v-2.562H210.876v11.321H222.31v-2.562h-5.64ZM192.8,168.254h5.459V156.933h-5.794l.489,5.591-3.605-5.591h-5.459v11.321h5.794l-.464-5.591,3.579,5.591Zm-27.348,0h5.794V156.933H165.45v11.321Zm-26.087,0h13.442v-2.562H145.75l7.056-6.22V156.91H139.364v2.562h7.056l-7.056,6.22v2.562Zm-18.8,0h6.206l-2.446-7.664a23.7,23.7,0,0,0-1.416-3.681h-9.065a23.692,23.692,0,0,0-1.416,3.681l-2.446,7.664h6.206l.412-1.84H120.2l.361,1.84Zm-.953-4.263H117.14l.979-4.379h.541l.953,4.379Zm-25.855,4.263h3.605V162.9h-6.18v.233l.541,1.654a1.575,1.575,0,0,1,.1.536.7.7,0,0,1-.386.676,2.487,2.487,0,0,1-1.03.186c-.824,0-1.21-.256-1.21-.769v-5.754a.6.6,0,0,1,.206-.419,1.358,1.358,0,0,1,.747-.163,1.281,1.281,0,0,1,.7.163.524.524,0,0,1,.206.419v1.561h6.283v-.978a2.816,2.816,0,0,0-1.725-2.609,12.258,12.258,0,0,0-5.459-.932,12.181,12.181,0,0,0-5.459.932,2.816,2.816,0,0,0-1.725,2.609V164.9a2.893,2.893,0,0,0,1.416,2.609,8.544,8.544,0,0,0,4.481.932c1.88,0,3.142-.256,3.837-.792a2.191,2.191,0,0,0,1.03-1.747,1.557,1.557,0,0,0-.1-.629h.592l-.464,2.982Zm-29.64,0h6.206l-2.446-7.664a23.693,23.693,0,0,0-1.416-3.681H57.4a23.692,23.692,0,0,0-1.416,3.681l-2.446,7.664h6.206l.412-1.84h3.554l.412,1.84Zm-.9-4.263H60.744l.979-4.379h.541l.953,4.379Zm-28.1,4.263h5.794l-1.622-11.321h-6.67l-2.5,6.569h-.309l-2.5-6.569h-6.67L19,168.254h5.794l.309-5.94h.335l2.189,5.94h4.687l2.189-5.94h.309l.309,5.94Z" transform="translate(0 -82.641)" fill="#B79FFF"></path>
        <path d="M20.6,65.954H31.687l.592-11.391h.592l4.167,11.391h8.978l4.193-11.391H50.8l.566,11.391H62.505L59.367,44.266H46.659l-4.785,12.6h-.592L36.446,44.243H23.687L20.6,65.954Zm59.6,0H91.291V44.243H80.2V65.954Zm42.805.373c4.6,0,8.026-.582,10.213-1.747a5.371,5.371,0,0,0,3.267-4.915,4.513,4.513,0,0,0-.849-2.819,6.9,6.9,0,0,0-2.315-1.794,47.489,47.489,0,0,0-4.579-1.794L128.051,53c-.643-.233-1.595-.536-2.83-.885A20.885,20.885,0,0,1,121.8,50.9c-.695-.349-1.055-.769-1.055-1.3v-.256a.863.863,0,0,1,.412-.769,2.166,2.166,0,0,1,1.363-.326,2.119,2.119,0,0,1,1.363.326.979.979,0,0,1,.412.769v1.3h11.653v-.885c0-1.84-1.132-3.285-3.421-4.379-2.264-1.048-5.711-1.584-10.315-1.584a25.964,25.964,0,0,0-9.621,1.468c-2.392.978-3.6,2.562-3.6,4.729a3.9,3.9,0,0,0,.926,2.656,6.349,6.349,0,0,0,2.315,1.7c.952.419,2.212.932,3.884,1.491.386.116.952.326,1.724.582,1.312.443,2.264.769,2.83.955,1.08.349,1.929.629,2.47.862a3.572,3.572,0,0,1,1.209.769,1.439,1.439,0,0,1,.412,1.095v.606a1.092,1.092,0,0,1-.489.839,2.377,2.377,0,0,1-1.492.349,2.453,2.453,0,0,1-1.492-.326,1.05,1.05,0,0,1-.463-.769V58.639H108.835V60.13c0,1.957,1.132,3.471,3.421,4.566,2.444,1.095,5.968,1.631,10.753,1.631Zm45.249,0c4.6,0,8.026-.582,10.213-1.747a5.37,5.37,0,0,0,3.267-4.915,4.513,4.513,0,0,0-.849-2.819,6.905,6.905,0,0,0-2.315-1.794,47.494,47.494,0,0,0-4.579-1.794L173.3,53c-.643-.233-1.595-.536-2.83-.885a20.885,20.885,0,0,1-3.421-1.211c-.695-.349-1.055-.769-1.055-1.3v-.256a.863.863,0,0,1,.412-.769,2.167,2.167,0,0,1,1.363-.326,2.119,2.119,0,0,1,1.363.326.979.979,0,0,1,.412.769v1.3H181.2v-.885c0-1.84-1.132-3.285-3.421-4.379-2.264-1.048-5.711-1.584-10.315-1.584a25.964,25.964,0,0,0-9.621,1.468c-2.392.978-3.6,2.562-3.6,4.729a3.9,3.9,0,0,0,.926,2.656,6.348,6.348,0,0,0,2.315,1.7c.952.419,2.212.932,3.884,1.491.386.116.952.326,1.724.582,1.312.443,2.264.769,2.83.955,1.08.349,1.929.629,2.47.862a3.571,3.571,0,0,1,1.209.769,1.439,1.439,0,0,1,.412,1.095v.606a1.092,1.092,0,0,1-.489.839,2.377,2.377,0,0,1-1.492.349,2.453,2.453,0,0,1-1.492-.326,1.05,1.05,0,0,1-.463-.769V58.639H154.084V60.13c0,1.957,1.132,3.471,3.421,4.566,2.392,1.095,5.942,1.631,10.753,1.631Zm36.632-.373h11.087V59.314a2.426,2.426,0,0,1,.283-1.235,9.52,9.52,0,0,1,.926-1.281l.463-.536c2.7-3.4,5.454-7.291,8.335-11.717v-.28h-12.5L210.7,53.095h-.489l-2.752-8.852H194.908v.3a140.543,140.543,0,0,0,8.36,11.717l.463.536a10.436,10.436,0,0,1,.926,1.281,2.551,2.551,0,0,1,.283,1.235l-.051,6.639Z" transform="translate(-1.227)" fill="#B79FFF"></path>
    </g>
</svg>