<?xml version="1.0" encoding="UTF-8"?>
<svg width="142px" height="100px" viewBox="0 0 142 100" version="1.1" xmlns="http://www.w3.org/2000/svg" xmlns:xlink="http://www.w3.org/1999/xlink">
    <title>logo/nd-cd/nd-letters/red</title>
    <g id="BRAND-2020" stroke="none" stroke-width="1" fill="none" fill-rule="evenodd">
        <g id="corporate-assets" transform="translate(-60.000000, -766.000000)" fill="#E60050">
            <g id="logo/nd-cd/nd-letters/red" transform="translate(60.000000, 766.000000)">
                <path d="M132.420238,-1.84741111e-13 L132.420238,90.794186 L134.708533,92.95 L141.115992,93.6034884 L141.115992,98.4372093 L121.304664,98.4372093 L121.304664,91.5127907 C117.816352,94.3 114.4165,96.3465116 111.105107,97.6523256 C107.791385,98.9593023 104.326352,99.6127907 100.708844,99.6127907 C93.2107787,99.6127907 87.0326148,96.6837209 82.1720246,90.8267442 C77.3114344,84.9709302 74.8823033,77.4686047 74.8823033,68.3244186 C74.8823033,57.7430233 78.0959262,49.1430233 84.5266639,42.5232558 C90.9550738,35.9046512 99.2923361,32.594186 109.536123,32.594186 C111.322762,32.594186 113.186221,32.7151163 115.125336,32.9534884 C117.064451,33.194186 119.124615,33.5744186 121.304664,34.0965116 L121.304664,34.0965116 L121.304664,8.94883721 L111.039926,8.94883721 L111.039926,4.76860465 L127.385057,-1.84741111e-13 L132.420238,-1.84741111e-13 Z M42.2368525,32.725 C48.0774754,32.725 52.5458197,34.4668605 55.6407213,37.9505814 C58.735623,41.4354651 60.2836557,46.4866279 60.2836557,53.1052326 L60.2836557,53.1052326 L60.2836557,90.7947674 L62.5719508,92.9494186 L69.7639016,93.602907 L69.7639016,98.4366279 L40.4723279,98.4366279 L40.4723279,93.602907 L46.8797869,92.9494186 L49.168082,90.7947674 L49.168082,55.3912791 C49.168082,50.3843023 48.1321803,46.8343023 46.0627049,44.7436047 C43.9920656,42.6540698 40.5153934,41.6087209 35.6338525,41.6087209 C33.5841639,41.6087209 31.3075082,41.9680233 28.8015574,42.6866279 C26.2944426,43.4052326 23.5801475,44.5052326 20.661,45.9854651 L20.661,45.9854651 L20.661,90.7947674 L22.9492951,92.9494186 L29.3567541,93.602907 L29.3567541,98.4366279 L1.06637322e-13,98.4366279 L1.06637322e-13,93.602907 L7.25713115,92.9494186 L9.54542623,90.7947674 L9.54542623,42.3924419 L1.06637322e-13,42.3924419 L1.06637322e-13,38.2122093 L15.5606393,33.4436047 L20.661,33.4436047 L20.661,40.7598837 C26.022082,37.7982558 30.3379508,35.719186 33.6062787,34.5215116 C36.8757705,33.3238372 39.7530164,32.725 42.2368525,32.725 Z M109.536123,38.4732558 C102.692189,38.4732558 97.1669918,40.9988372 92.9605328,46.05 C88.7540738,51.1023256 86.6508443,57.7651163 86.6508443,66.0383721 C86.6508443,73.7453488 88.4712377,79.8639535 92.1108607,84.3930233 C95.7493197,88.922093 100.620385,91.1860465 106.724057,91.1860465 C109.034467,91.1860465 111.399582,90.805814 113.818238,90.0430233 C116.236893,89.2813953 118.732369,88.1162791 121.304664,86.5488372 L121.304664,86.5488372 L121.304664,40.6290698 C118.819664,39.8883721 116.618664,39.3453488 114.7005,38.9953488 C112.782336,38.6476744 111.060877,38.4732558 109.536123,38.4732558 Z" id="Combined-Shape"></path>
            </g>
        </g>
    </g>
</svg>