<svg xmlns:xlink="http://www.w3.org/1999/xlink" xmlns="http://www.w3.org/2000/svg" id="Ebene_1" data-name="Ebene 1" viewBox="0 0 100 43.91" width="100"  height="43.91" ><defs><style>.cls-1{fill:#e31818;}.cls-2{fill:#fff;}</style></defs><title>rbb-logo</title><polygon class="cls-1" points="100 0 0 0 0 43.91 90.67 43.91 100 0"/><path class="cls-2" d="M52.79,29.56A33.52,33.52,0,0,0,53,26a31.9,31.9,0,0,0-.25-3.61,34.35,34.35,0,0,0-15.53-.85v8.54c2.8.25,5.2.41,7.22.41a31,31,0,0,0,8.37-.9m27,0A34.87,34.87,0,0,0,80,26a32.66,32.66,0,0,0-.26-3.61,34.34,34.34,0,0,0-15.53-.85v8.54c2.8.25,5.2.41,7.22.41a31.08,31.08,0,0,0,8.37-.9m3.87-3.76c0,5.23-.86,6.48-.86,6.48s-2.35,2-11.44,2a100.94,100.94,0,0,1-10.81-.74V9.67h3.66v8a45.51,45.51,0,0,1,6.06-.45c8.4,0,12.51,2.34,12.51,2.34s.89,1.15.89,6.22m-27,0c0,5.23-.86,6.48-.86,6.48s-2.35,2-11.44,2a100.94,100.94,0,0,1-10.81-.74V9.67H37.2v8a45.58,45.58,0,0,1,6.06-.45c8.4,0,12.51,2.34,12.51,2.34s.89,1.15.89,6.22M29.51,21.09c-9.19.13-14.13,1.6-15.89,2.21V34H9.89V20.81s5.58-3.43,19.62-3.5Z" transform="translate(0)"/></svg>