<svg xmlns:xlink="http://www.w3.org/1999/xlink" xmlns="http://www.w3.org/2000/svg" id="Ebene_1" data-name="Ebene 1" viewBox="0 0 130 42.17" width="130"  height="42.17" ><defs><style>.cls-1{fill:#e31818}.cls-2{fill:#fff}</style></defs><path class="cls-1" d="M63.32 0H130v42.17H54.35L63.32 0z"/><path class="cls-2" d="M91.26 33.24H72c.2-8 3.95-11.81 9.85-14.44 2.5-1.11 2.87-1.48 2.87-2.43s-.74-1.62-2.63-1.62a12.46 12.46 0 0 0-7 2.4l-3-4.82a17.78 17.78 0 0 1 10.06-3.07c5.87 0 8.94 2.36 8.94 6.65 0 3.1-1.08 5-5.6 7.08-4.72 2.19-6 3.51-6.54 4.93h12.31zM116.21 29.2h-3v4h-5.91V29H94v-4.76l12.7-14.61h6.48v14h3zm-8.81-13a37.09 37.09 0 0 1-2.83 3.68l-.34.4a40 40 0 0 1-3.1 3.44c1.18-.07 2.8-.1 4.42-.1h1.75v-2.29c0-1.33.04-3.98.1-5.09z" transform="translate(-.04 -.16)"/><path class="cls-1" d="M58.58 8.2H0v25.77h53.1L58.58 8.2z"/><path class="cls-2" d="M31 25.7a19.63 19.63 0 0 0 .12-2.1 18.68 18.68 0 0 0-.15-2.11 20.11 20.11 0 0 0-9.1-.5v5c1.64.15 3 .24 4.23.24a18.38 18.38 0 0 0 4.9-.53m15.79 0a20.42 20.42 0 0 0 .12-2.1 19.13 19.13 0 0 0-.15-2.11 20.11 20.11 0 0 0-9.1-.5v5c1.64.15 3 .24 4.23.24a18.41 18.41 0 0 0 4.9-.53M49 23.5c0 3.07-.5 3.8-.5 3.8s-1.38 1.15-6.7 1.15a59.08 59.08 0 0 1-6.31-.45V14h2.14v4.7a26.65 26.65 0 0 1 3.55-.26c4.92 0 7.33 1.37 7.33 1.37s.52.67.52 3.64m-15.79 0c0 3.07-.5 3.8-.5 3.8s-1.38 1.15-6.7 1.15a59.1 59.1 0 0 1-6.34-.4V14h2.14v4.7a26.69 26.69 0 0 1 3.55-.26c4.92 0 7.33 1.37 7.33 1.37s.52.67.52 3.64m-15.92-2.7A29.88 29.88 0 0 0 8 22v6.3H5.83v-7.72s3.27-2 11.49-2.05z" transform="translate(-.04 -.16)"/></svg>