<?xml version="1.0" encoding="utf-8"?>
<svg version="1.1" id="Ebene_1" xmlns="http://www.w3.org/2000/svg" xmlns:xlink="http://www.w3.org/1999/xlink" x="0px" y="0px"
	 viewBox="0 0 550 285" style="enable-background:new 0 0 550 285;" xml:space="preserve">
<style type="text/css">
	.st0{clip-path:url(#SVGID_00000021826845175128764470000016421625974300188805_);}
	.st1{fill:#00AF2C;}
	.st2{fill:#FFFFFF;}
	.st3{fill:#6E0CED;}
	.st4{fill:#EC32EB;}
	.st5{fill:#050508;}
</style>
<g>
	<defs>
		<rect id="SVGID_1_" width="549.9" height="284.6"/>
	</defs>
	<clipPath id="SVGID_00000066484614913558759860000010051009999725654682_">
		<use xlink:href="#SVGID_1_"  style="overflow:visible;"/>
	</clipPath>
	<g style="clip-path:url(#SVGID_00000066484614913558759860000010051009999725654682_);">
		<path class="st1" d="M453.5,0H311.8v79.7h141.7V0z"/>
		<path class="st2" d="M355.8,18.3h9.8v34.6h43.8v8.5h-53.6V18.3z"/>
		<path class="st3" d="M297.6,0H155.9v79.7h141.7V0z"/>
		<path class="st2" d="M221.8,26.8h-24.9v-8.5h59.7v8.5h-24.9v34.6h-9.9V26.8z"/>
		<path class="st4" d="M141.7,0H0v79.7h141.7V0z"/>
		<path class="st2" d="M40.3,18.3H78c11.5,0,17.9,5.2,17.9,13.8c0,7.4-4.8,12.4-13,13.6l18.5,15.6H87.3L69.8,46.3H50.1v15.1h-9.8
			V18.3z M76.7,38.2c6.1,0,9-2,9-6s-2.9-5.9-9-5.9H50.1v11.9L76.7,38.2L76.7,38.2z"/>
		<path class="st5" d="M72.7,282.1H44.2V151.9h-0.9l-41,28H0.1v-27.1L44,122.8h28.7V282.1z"/>
		<path class="st5" d="M110.5,263.4c-10.9-14.2-16.4-34.6-16.4-61.4s5.5-46.6,16.4-60.7c10.9-14,26.7-21.1,47.3-21.1
			s36.2,7,47.1,21.1c10.9,14,16.4,34.3,16.4,60.7s-5.5,47.2-16.4,61.4c-10.9,14.2-26.6,21.3-47.1,21.3S121.4,277.6,110.5,263.4z
			 M184.1,245.8c5.7-9.5,8.5-24.1,8.5-43.8s-2.9-33.8-8.6-43.1s-14.5-14-26.2-14c-11.7,0-20.6,4.7-26.3,14
			c-5.7,9.3-8.5,23.7-8.5,43.1s2.9,34.3,8.5,43.8c5.7,9.5,14.5,14.2,26.3,14.2C169.7,260.1,178.4,255.3,184.1,245.8"/>
		<path class="st5" d="M338.6,282.1h-28.5v-31.2h-77.9v-27.3l69.9-100.9h36.4v103.6h22.1V251h-22.1V282.1L338.6,282.1z M261,225.4
			v0.9h49.2v-72.2h-0.9L261,225.4z"/>
		<path class="st5" d="M411.2,251.6h-32.1v30.5h32.1V251.6z"/>
		<path class="st5" d="M442,264.1c-10.8-13.7-16.2-33.4-16.2-59.2s5.7-47.7,17.2-62.5c11.5-14.8,27.7-22.2,48.6-22.2
			c15.8,0,28.8,4,39,12c10.2,8,16.3,18.7,18.1,32.2H521c-1.2-6.1-4.4-10.8-9.6-14.2c-5.2-3.4-11.8-5.1-19.8-5.1
			c-12.4,0-22,4.4-28.6,13.2c-6.6,8.8-10,21.3-10.1,37.6h0.9c9-12,22.4-18,40.3-18c10.9,0,20.6,2.2,29,6.6
			c8.4,4.4,15,10.5,19.7,18.3c4.7,7.8,7.1,16.8,7.1,27c0,10.9-2.5,20.5-7.5,28.8c-5,8.3-12.1,14.7-21.3,19.2
			c-9.2,4.5-19.9,6.8-32,6.8C468.5,284.6,452.7,277.8,442,264.1z M512.9,251.9c6-5.5,9-12.7,9-21.6c0-9-2.9-16.1-8.8-21.3
			c-5.8-5.2-13.8-7.9-24-7.9c-10.2,0-17.8,2.7-23.7,8c-5.9,5.3-8.9,12.4-8.9,21.2s3,16.2,8.9,21.6c5.9,5.5,13.8,8.2,23.7,8.2
			S506.9,257.3,512.9,251.9z"/>
	</g>
</g>
</svg>
