<svg xmlns:xlink="http://www.w3.org/1999/xlink" _ngcontent-serverapp-c3004729700="" width="130" height="20" viewBox="0 0 130 20" fill="none" xmlns="http://www.w3.org/2000/svg" role="img"><title _ngcontent-serverapp-c3004729700="">RTL+</title><path _ngcontent-serverapp-c3004729700="" d="M122.276 4.6875V8.80618H116.906V11.1938H122.276V15.3125H124.623V11.1938H130V8.80618H124.623V4.6875H122.276Z" class="plus" fill="#FDFEFF"></path><rect _ngcontent-serverapp-c3004729700="" x="5.2998" y="3.125" width="23.3813" height="14.0625" class="box" fill="#FFFFFF"></rect><rect _ngcontent-serverapp-c3004729700="" x="43.645" y="3.125" width="23.3813" height="14.0625" class="box" fill="#FFFFFF"></rect><rect _ngcontent-serverapp-c3004729700="" x="81.6787" y="3.125" width="23.3813" height="14.0625" class="box" fill="#FFFFFF"></rect><path _ngcontent-serverapp-c3004729700="" fill-rule="evenodd" clip-rule="evenodd" d="M0 0H34.5957V19.9994H0V0ZM21.6385 15.3699L17.332 11.5807H12.1596V15.3699H9.69957V11.5807V4.62414H19.8953C20.1361 4.63587 20.3712 4.65933 20.6063 4.70626C20.7018 4.72579 20.7933 4.74938 20.8874 4.77366C20.9064 4.77855 20.9254 4.78346 20.9447 4.78837H20.9561C20.9891 4.79904 21.0222 4.80917 21.055 4.81924C21.1306 4.84242 21.2053 4.86534 21.2773 4.89395C21.284 4.89395 21.2887 4.89597 21.2927 4.89763C21.2954 4.89881 21.2978 4.89982 21.3002 4.89982C21.4034 4.93501 21.5009 4.97607 21.5984 5.023L21.6328 5.04059C21.6591 5.05407 21.6855 5.06706 21.7117 5.07998C21.7768 5.11207 21.841 5.14374 21.9023 5.18137C21.9092 5.18847 21.9183 5.19342 21.9282 5.19883C21.9346 5.20235 21.9414 5.20607 21.9482 5.2107C22.0342 5.25762 22.1145 5.31041 22.189 5.3632C22.2005 5.372 22.2105 5.37932 22.2205 5.38665C22.2306 5.39399 22.2406 5.40132 22.2521 5.41013C22.3209 5.45705 22.3897 5.50984 22.4585 5.5685C22.4815 5.58609 22.5044 5.60954 22.5273 5.633L22.5273 5.63302C22.5904 5.68581 22.6478 5.7386 22.7051 5.79725L22.7051 5.79728C22.7281 5.8266 22.751 5.85592 22.7797 5.88524C22.8026 5.91456 22.827 5.94242 22.8513 5.97028C22.8757 5.99814 22.9001 6.02601 22.923 6.05534C22.9373 6.07294 22.9503 6.092 22.9632 6.11106C22.9761 6.13013 22.989 6.14919 23.0033 6.16678C23.0151 6.18411 23.027 6.20092 23.0387 6.21752C23.0666 6.25713 23.0937 6.29555 23.118 6.33689C23.1247 6.34885 23.1318 6.36132 23.1392 6.37414C23.1571 6.4053 23.1763 6.43855 23.1925 6.4718C23.2269 6.53045 23.2556 6.58324 23.2843 6.6419C23.2957 6.66829 23.3072 6.69615 23.3187 6.72401C23.3302 6.75188 23.3416 6.77974 23.3531 6.80613C23.3597 6.82132 23.3668 6.8365 23.3739 6.85183C23.3916 6.88978 23.4096 6.92859 23.4219 6.97037C23.4408 7.02362 23.4559 7.08087 23.4702 7.13552C23.4732 7.14708 23.4762 7.15853 23.4792 7.1698C23.4965 7.22259 23.5137 7.27538 23.5251 7.32817C23.5423 7.40442 23.5538 7.48654 23.5653 7.56866C23.5681 7.59212 23.5724 7.61412 23.5767 7.63612C23.581 7.65811 23.5853 7.68011 23.5882 7.70357C23.6054 7.83261 23.6111 7.96752 23.6111 8.10243C23.6111 8.23733 23.5997 8.37224 23.5882 8.50128C23.5853 8.52474 23.581 8.54674 23.5767 8.56873C23.5724 8.59073 23.5681 8.61273 23.5653 8.63619C23.5631 8.65045 23.561 8.66512 23.5588 8.68005C23.5493 8.74494 23.5391 8.81469 23.5251 8.87668C23.5194 8.90308 23.5122 8.92801 23.5051 8.95293C23.4979 8.97786 23.4907 9.00279 23.485 9.02919C23.4678 9.09957 23.4506 9.16409 23.4276 9.22862C23.4104 9.28727 23.3875 9.34006 23.3646 9.39285C23.3531 9.41925 23.3416 9.44711 23.3302 9.47497C23.3187 9.50283 23.3072 9.53069 23.2957 9.55709C23.2814 9.58348 23.2656 9.61135 23.2499 9.63921C23.2341 9.66707 23.2183 9.69493 23.204 9.72133C23.1811 9.76825 23.1581 9.81518 23.1294 9.8621C23.095 9.92076 23.0549 9.97941 23.0148 10.0322C23.0004 10.0498 22.9875 10.0689 22.9746 10.0879C22.9617 10.107 22.9488 10.1261 22.9345 10.1436C22.8886 10.2023 22.8427 10.261 22.7911 10.3137C22.7768 10.3284 22.7639 10.3431 22.751 10.3577C22.7381 10.3724 22.7252 10.3871 22.7108 10.4017C22.6717 10.4462 22.626 10.4873 22.5811 10.5276C22.5669 10.5405 22.5527 10.5532 22.5388 10.566C22.5339 10.57 22.5291 10.5739 22.5245 10.5776C22.5023 10.5957 22.4833 10.6111 22.4643 10.6305L22.2578 10.7889C22.2463 10.7977 22.2363 10.805 22.2263 10.8123C22.2162 10.8197 22.2062 10.827 22.1947 10.8358C22.1202 10.8886 22.0399 10.9414 21.9596 10.9883C21.951 10.9942 21.9424 10.9986 21.9338 11.003C21.9252 11.0074 21.9166 11.0118 21.908 11.0176C21.822 11.0704 21.7303 11.1173 21.6385 11.1584L21.6041 11.176C21.5066 11.2229 21.4091 11.264 21.3059 11.2992C21.3031 11.2992 21.2988 11.3006 21.2945 11.3021C21.2902 11.3036 21.2859 11.305 21.283 11.305C21.1798 11.3461 21.0708 11.3813 20.9619 11.4106C20.9586 11.414 20.9572 11.4154 20.9555 11.416C20.9542 11.4165 20.9528 11.4165 20.9504 11.4165C20.8414 11.4517 20.7268 11.4751 20.6121 11.4986H20.6063C20.5891 11.4986 20.5662 11.5045 20.5433 11.5103L24.9071 15.3464V15.3699H21.6385ZM19.5397 6.54218L19.4021 6.53632V6.54218H12.1596V9.66854H19.3849L19.5397 9.66267C20.2451 9.63334 21.4435 9.28141 21.4435 8.10243C21.4435 6.92344 20.2451 6.56564 19.5397 6.54218Z" fill="#EDC00C"></path><path _ngcontent-serverapp-c3004729700="" fill-rule="evenodd" clip-rule="evenodd" d="M38.3018 0.000976562H72.8975V20.0003H38.3018V0.000976562ZM54.3237 6.93029H48.1248V4.62511H63.0342V6.93029H56.8353V15.365H54.3237V6.93029Z" fill="#FF8A00"></path><path _ngcontent-serverapp-c3004729700="" fill-rule="evenodd" clip-rule="evenodd" d="M76.605 0.000976562H111.201V20.0003H76.605V0.000976562ZM89.7414 4.62511V13.0598H100.625V15.365H87.2298V4.62511H89.7414Z" fill="#9629BC"></path></svg>