<svg version="1.1" xmlns="http://www.w3.org/2000/svg" xmlns:xlink="http://www.w3.org/1999/xlink" viewBox="0 0 692 140" aria-hidden="true" role="img" width="692"  height="140" >
    <path fill-rule="evenodd" clip-rule="evenodd" fill="#33322F" d="M101.9,71.9c0,11-7.6,22.3-19,22.3c-6.5,0-10.7-3.8-10.7-9.7
	c0-6.3,5.4-13.8,29.8-13.8v1.2H101.9z M200.7,113.1c0-12.7-8.5-20-23.7-20h-13c-8.5,0-12-1.5-12-5.5c0-2.3,1.4-4.5,4.5-5.8
	c2.4,0.4,5.9,0.8,8.9,0.8c20,0,30.5-11,30.5-26.1c0-5.9-2.3-10.9-5.9-13.7h11.9v-10h-23.8c-3.7-0.8-6.9-1.3-11-1.3
	c-19.6,0-30.8,12.3-30.8,27.1c0,8.9,3.4,16.1,10.3,20c-4.9,2.3-7.9,6.8-7.9,11.7c0,4.7,2.7,8.3,6.9,10.3
	c-6.2,3.2-11.6,9.9-11.6,18.2c0,13.4,11.4,20.6,29.5,20.6C185.4,139.5,200.7,127.9,200.7,113.1z M183.3,57.4
	c0,10.3-6.8,16.1-17.4,16.1c-11,0-17.4-5.6-17.4-16.1c0-9.4,6.6-16.4,17.8-16.4C177.1,41,183.3,47.1,183.3,57.4z M188.1,114.7
	c0,8.6-8.3,14.7-22.7,14.7c-11,0-18.9-4.5-18.9-12.8c0-5.4,3.5-10,9-12.8h17.9C183.3,103.7,188.1,107.9,188.1,114.7z M272.9,61
	c0-16.1-8.3-29.5-28.1-29.5c-19.9,0-31.3,15.7-31.3,36.7c0,24.7,11.6,36,33.2,36c8.7,0,16.9-1.6,23.7-4.4l-1.1-10.3
	c-5.6,2.7-13.3,4.4-20.5,4.4c-15,0-22.7-8-22.1-26.8h45.9C272.7,64.7,272.9,62.7,272.9,61z M259.9,58.1h-32.7
	c1.4-10.3,7.9-17.2,17.1-17.2C254.1,40.9,260.2,47.8,259.9,58.1z M333.7,81.9c0-23.6-32.7-15.2-32.7-30.6c0-6.1,4.7-10,14-10
	c4.7,0,9.7,0.8,14.1,2.3l0.3-10.6c-4.2-0.8-9.2-1.4-13.4-1.4c-18.3,0-28.1,9.2-28.1,21c0,24.7,32.6,15.1,32.6,30.8
	c0,6.5-6.3,10.7-15.7,10.7c-5.4,0-11-1-15.4-2.4L289,103c4.4,0.9,9.6,1.3,14.8,1.3C322.4,104.2,333.7,94.6,333.7,81.9z M395.6,80.8
	c0-22-26.2-19.3-26.2-28.1c0-3.2,2.5-5.4,8-5.4c4.2,0,8.8,0.6,12.4,1.7l0.4-16.8c-4-0.6-8.3-1.1-12.3-1.1c-20.7,0-31,10.7-31,23.4
	c0,23.3,25.8,17.8,25.8,28.1c0,3.3-3.4,5.5-8.9,5.5c-5.1,0-10.4-1-14.7-2.2l-0.4,17.5c4.5,0.6,9.6,1.1,14.5,1.1
	C382.9,104.5,395.6,95.3,395.6,80.8z M456.2,101.4l-1.7-18.2c-3.4,1.7-7.8,2.5-11.9,2.5c-9.7,0-14.5-6.6-14.5-17.4
	c0-11.6,4.9-18.6,14.8-18.6c3.8,0,7.5,0.9,11,2l2.3-18.6c-4.4-1.1-9-1.8-13.5-1.8c-25.7,0-37,17.6-37,38.8
	c0,22.6,10.9,34.3,32.2,34.3C444.6,104.4,451.4,103.2,456.2,101.4z M533.5,102.9V53.4c0-12.1-5.1-22.2-20.7-22.2
	c-10.4,0-18.1,4.5-22.2,11.1c0.7-4.4,1-10.3,1-14.4V0h-21.5v103h21.5V69.1c0-10.4,6.4-19.8,14-19.8c4.9,0,6.5,3.4,6.5,9v44.6
	C512.1,102.9,533.5,102.9,533.5,102.9z M609.5,102.9c-0.4-5.5-0.6-11.6-0.6-16.6V56.1C608.9,40,602.1,31,578,31
	c-8.8,0-18.2,1.8-25.4,4.1l1.7,17.8c5.8-3.1,14.3-5.1,20.5-5.1c9.3,0,12.5,2.8,12.5,8.6v2.7c-22.3,0-39.5,8.5-39.5,26.2
	c0,11.3,7.1,19.2,20.5,19.2c9.7,0,18.1-4.8,21.4-12.1c-0.4,3.5-0.4,7.2-0.4,10.6h20.2V102.9z M587.4,74.7c0,6.9-4.9,13.4-12.1,13.4
	c-4.5,0-7.1-2.5-7.1-6.1c0-5.1,3.7-9.3,19.2-9.3L587.4,74.7L587.4,74.7z M690.6,102.9V32.8H669v34c0,10.3-6.2,19.6-13.8,19.6
	c-4.9,0-6.5-3.4-6.5-9V32.8h-21.6v49.5c0,12.1,5.2,22.2,20.9,22.2c11.1,0,18.9-5.4,23.1-12.6c-0.4,3.4-0.6,8.5-0.6,11
	C670.5,102.9,690.6,102.9,690.6,102.9z M46.7,102.7V92c-2.8,0.7-6.4,1.3-9.6,1.3c-7.9,0-10-3.1-10-14.7V42.7h19.6v-9.9H27.1V6.6
	l-12.7,3.5v22.7H0v9.9h14.4v40.4c0,15.1,4.4,21,18.8,21C37.6,104.1,42.7,103.5,46.7,102.7z M114.9,102.9c-0.1-6.1-0.3-13.5-0.3-20.2
	V54.8c0-14-5.8-23.4-26-23.4c-9.3,0-17.8,2.3-24.5,5.1l1.3,10.9c6.1-3.7,14.5-5.8,21.2-5.8c11.6,0,15.4,5.2,15.4,15v5.2
	c-26.5,0-42.2,9.7-42.2,25.1c0,11.1,7.9,17.4,19.5,17.4s20.5-6.6,23.8-15.2c-0.4,4-0.4,9-0.4,14h12.2V102.9z"></path>
</svg>