<svg viewBox="28.9 17.7 566 78" xmlns="http://www.w3.org/2000/svg" aria-hidden="true" class="B1h9"><path d="M39.98 90.27l6.95-1.63V27.08H34.12l-2.82 13.9h-1.85V21.1h45.82v19.87h-1.85l-2.71-13.9H58.66v61.57l6.95 1.63v2.06H39.98zM71.85 90.27l4.78-1.63 17.7-67.54h6.08l17.26 67.54 4.78 1.63v2.06H98.24v-2.06l6.62-1.63-3.37-13.57H85.64l-3.58 13.57 6.62 1.63v2.06H71.85zm28.45-20.3l-6.19-28.56-7.38 28.56zM184.37 84.99c-8.9 5.97-18.68 9.01-29.21 9.01-10.75 0-20.2-4.89-26.28-11.18-4.89-5-8.69-14.22-8.69-25.08 0-22.69 11.29-39.2 38-39.2 5.97 0 13.25 1.41 18.89 4.45l1.74-4.56h2.06v23.45h-2.17l-2.93-13.79c-4.67-2.28-10.32-3.47-17.59-3.47-8.47 0-16.29 4.56-19.87 10.1-4.13 6.19-5.32 11.29-5.32 21.5 0 18.13 8.9 32.03 24.97 32.03 5.86 0 10.86-1.74 14.66-3.69V67.18l-11.07-1.63v-2.06h22.8v21.5zM187.54 90.27l6.95-1.63V24.8l-6.95-1.63V21.1h37.68v17.05h-2.06l-2.61-11.62h-14.66v28.88h13.36l2.28-9.34h1.74v23.56h-1.74l-2.28-9.34h-13.36v26.6h14.77l2.61-11.62h2.06v17.05h-37.79zM270.96 73.9c0 11.94-7.28 19.76-19.11 19.87-5.21 0-8.47-1.3-11.62-3.58l-1.41 4.78h-2.71V71.51h2.17l2.82 13.03c2.17 1.95 5.43 3.69 9.34 3.69 5.97 0 10.86-3.91 10.86-10.53 0-6.73-3.15-9.01-10.86-13.36-6.95-4.02-7.71-4.23-11.62-7.93-4.02-3.47-6.51-7.71-6.51-14.66 0-12.27 7.28-21.83 19.98-21.83 4.02 0 7.71.98 10.97 2.82l1.63-4.23h1.95v23.45h-2.06l-3.26-14.44c-3.04-1.63-5.21-2.39-9.01-2.39-7.17.11-10.53 5.65-10.53 12.49 0 6.3 3.37 8.69 6.41 10.86 6.3 4.23 13.57 7.28 18.13 12.16 3.13 3.59 4.44 7.07 4.44 13.26zM314.13 73.9c0 11.94-7.27 19.76-19.11 19.87-5.21 0-8.47-1.3-11.62-3.58l-1.4 4.77h-2.72V71.51h2.17l2.82 13.03c2.17 1.95 5.43 3.69 9.34 3.69 5.97 0 10.86-3.91 10.86-10.53 0-6.73-3.15-9.01-10.86-13.36-6.95-4.02-7.71-4.23-11.62-7.93-4.02-3.47-6.52-7.71-6.52-14.66 0-12.27 7.27-21.83 19.98-21.83 4.02 0 7.71.98 10.97 2.82l1.63-4.23H310v23.45h-2.06l-3.26-14.44c-3.04-1.63-5.21-2.39-9.01-2.39-7.17.11-10.53 5.65-10.53 12.49 0 6.3 3.37 8.69 6.41 10.86 6.3 4.23 13.57 7.28 18.13 12.16 3.15 3.59 4.45 7.07 4.45 13.26zM318.42 90.27l6.95-1.63V24.8l-6.95-1.63V21.1h24.32c9.66 0 15.74 1.52 17.92 9.23.76 2.71 1.09 6.41 1.09 10.86 0 9.12-2.39 16.18-9.12 18.78-3.37 1.41-8.69 1.63-14.66 1.63h-.76v27.04l6.95 1.63v2.06h-25.73v-2.06zm21.18-33.88c4.67 0 5.76-.54 7.38-1.52 2.61-1.63 3.8-7.71 3.8-13.68 0-7.06-.54-9.34-2.5-12.16-1.3-1.95-3.26-2.39-9.23-2.39h-1.85v29.75zM364.31 23.17V21.1h25.63v2.06l-6.95 1.63v63.85l6.95 1.63v2.06h-25.63v-2.06l6.95-1.63V24.8zM396.4 90.31l6.95-1.63V24.83l-6.95-1.63v-2.06h37.68v17.05h-2.06l-2.61-11.62h-14.66v28.88h13.36l2.28-9.34h1.74v23.56h-1.74l-2.28-9.34h-13.36v26.6h14.77l2.61-11.62h2.06v17.05H396.4zM505 84.99c-8.9 5.97-18.68 9.01-29.21 9.01-10.75 0-20.2-4.89-26.28-11.18-4.89-5-8.69-14.22-8.69-25.08 0-22.69 11.29-39.2 38-39.2 5.97 0 13.25 1.41 18.89 4.45l1.74-4.56h2.06v23.45h-2.17l-2.93-13.79c-4.67-2.28-10.32-3.47-17.59-3.47-8.47 0-16.29 4.56-19.87 10.1-4.13 6.19-5.32 11.29-5.32 21.5 0 18.13 8.9 32.03 24.97 32.03 5.86 0 10.86-1.74 14.66-3.69V67.18l-11.08-1.63v-2.06H505zM508.19 90.31l6.95-1.63V24.83l-6.95-1.63v-2.06h37.68v17.05h-2.06l-2.61-11.62h-14.66v28.88h13.36l2.28-9.34h1.74v23.56h-1.74l-2.28-9.34h-13.36v26.6h14.77l2.61-11.62h2.06v17.05h-37.79zM553.56 90.31l6.95-1.63V24.83l-6.95-1.63v-2.06h26.06v2.06l-6.95 1.63v61.89h16.83l2.6-11.62h2.06v17.26h-40.61v-2.05z"></path></svg>