<svg xmlns:xlink="http://www.w3.org/1999/xlink" xmlns="http://www.w3.org/2000/svg" alt="Übermedien title=" Übermedien="" class="logo" width="326"  height="174" ><defs><symbol id="übermedien" viewBox="0 0 326 174" preserveAspectRatio="xMinYMax meet">
	<title>übermedien</title>
	<path d="m51.7384041 173.97656h13.2158861l-1.0331814-63.19085 11.9771503 63.19085h12.5965181l11.7706948-63.19085-1.2387362 63.19085h13.3195652v-72.895182h-21.5796067l-8.5701762 51.005441-8.6729533-51.005441h-21.7860622v72.895182zm70.6737509 0h36.240684v-11.255006h-22.818342v-22.40543h20.546425v-11.048549h-20.546425v-17.139451h21.88884v-11.151326h-35.311182zm44.892902 0h21.579606c16.932093 0 18.481865-9.499679 18.481865-19.618726v-34.073347c0-5.781668-.515689-10.737513-4.337378-14.661078-4.439254-4.542932-9.706134-4.542932-14.040808-4.542932h-21.683285zm13.423244-62.260446h5.265077c5.884446 0 8.054487.929503 8.054487 7.434218v36.344362c0 2.683928 0 6.917627-4.853067 7.639772-1.135959.206456-2.167337.206456-8.466497.206456zm35.000145 62.260446h13.318663v-72.895182h-13.318663zm22.651554 0h36.241585v-11.255006h-22.819243v-22.40543h20.547326v-11.048549h-20.547326v-17.139451h21.888839v-11.151326h-35.311181zm86.192207-72.895182h-12.285482l1.341513 53.483814-13.113108-53.483814h-17.242228v72.895182h12.595616l-1.237834-54.619772 13.00943 54.619772h16.932093zm-322.60050752-26.4074298c0 11.9771502 6.91762694 18.2754093 19.51414512 18.2754093 16.0034922 0 20.0307357-8.467399 20.0307357-17.9661762v-56.4778756h-13.5251192v54.1031813c0 4.1300208 0 8.8803109-6.1954818 8.8803109-6.2982591 0-6.2982591-4.8530673-6.2982591-8.7766321v-54.2068601h-13.52602072zm49.36280832 16.7256373h23.0256995c5.2650777 0 8.9821865-.4129119 11.7706943-2.2719171 4.9558445-3.3032953 4.9558445-9.3950985 4.9558445-13.3186632v-10.3255026c0-7.8471295-.6193679-11.6670156-9.2932228-13.3195648 5.1632021-1.0322798 8.5701762-2.7876062 8.5701762-12.2863834v-6.504715c0-4.9558446-.6193679-9.7052332-5.2659793-12.6992954-2.8903834-1.8590051-5.9881243-2.1682383-11.1504249-2.1682383h-22.6127875zm13.4232435-62.466h5.3687565c3.4069741 0 5.5752124.6202694 6.4019378 2.9940622.5156891 1.2396373.5156891 1.8590051.5156891 8.6729533 0 3.7171088-.928601 5.8853472-3.61343 6.5047151-1.1359586.2064559-2.6848291.2064559-8.6729534.2064559zm0 28.9101451h5.7816684c5.6788912 0 7.4342176 1.1359585 7.4342176 7.1249844v8.5692746c0 6.711171-2.0645596 7.3305389-7.6406736 7.3305389h-5.5752124zm34.6999275 33.5558549h36.2415852v-11.2532021h-22.818342v-22.40543h20.546425v-11.0476477h-20.546425v-17.1403523h21.88884v-11.1513265h-35.3120832zm44.8929012 0h13.422342v-32.1106632h6.401037c7.022207 0 7.022207 3.5106528 7.022207 8.4664974v15.5905803c0 2.1682383.41201 5.2659793 1.961782 8.0535855h14.764757c-2.787607-2.2719171-3.097741-6.0918031-3.097741-9.8089119v-14.8684353c0-9.8080103-6.71027-11.7697927-9.911689-12.5965181 6.504715-1.4451917 9.394197-3.0977409 9.394197-12.3900622v-7.8471295c0-6.711171 0-15.4878031-13.111306-15.4878031h-26.845586zm13.422342-62.466h7.021306c2.994964 0 6.196383 0 6.196383 5.9890259v6.9176269c0 3.7171089-.103678 7.0213057-6.196383 7.0213057h-7.021306z"></path>
	<path d="m0 13.813h12.028v-13.011h-12.028z"></path>
	<path d="m15.693 13.813h12.028v-13.011h-12.028z"></path>
	<path d="m31.386 13.813h12.028v-13.011h-12.028z"></path>
</symbol></defs><use xlink:href="#übermedien"></use></svg>