<svg xmlns:xlink="http://www.w3.org/1999/xlink" width="140" height="31" viewBox="0 0 140 31" fill="none" xmlns="http://www.w3.org/2000/svg"><path fill-rule="evenodd" clip-rule="evenodd" d="M77.6634 5.65601C80.2408 5.65601 82.3043 6.48244 83.855 8.13492C85.4055 9.7876 86.1809 12.0466 86.1809 14.9125V15.5713H74.2062C74.269 16.7637 74.6251 17.6792 75.275 18.3169C75.924 18.9554 76.7834 19.274 77.8522 19.274C78.5641 19.274 79.1927 19.1122 79.7379 18.7876C80.2825 18.4636 80.67 18.0297 80.9007 17.4854H85.8981C85.4158 19.2637 84.4414 20.6075 82.9748 21.5175C81.5083 22.4274 79.7796 22.8824 77.7892 22.8824C75.0863 22.8824 72.9224 22.1032 71.299 20.5448C69.675 18.9868 68.8631 16.8789 68.8631 14.2223C68.8631 11.7747 69.7167 9.73515 71.4246 8.10338C73.1322 6.4718 75.212 5.65601 77.6634 5.65601ZM94.1637 6.12663V15.6968C94.1637 17.5589 95.0438 18.4895 96.8039 18.4895C97.6416 18.4895 98.3386 18.1707 98.894 17.5326C99.4488 16.8947 99.7268 16.0318 99.7268 14.9439V6.12663H105.07V22.4118H99.884V20.1839H99.8212C99.297 21.0208 98.5638 21.6797 97.6211 22.1608C96.6783 22.6418 95.7456 22.8823 94.8238 22.8823C92.7912 22.8823 91.2827 22.3441 90.2981 21.2666C89.3131 20.1894 88.8206 18.469 88.8206 16.1048V6.12663H94.1637ZM130.464 5.65601C133.042 5.65601 135.105 6.48244 136.656 8.13492C138.206 9.7876 138.982 12.0466 138.982 14.9125V15.5713H127.007C127.07 16.7637 127.426 17.6792 128.076 18.3169C128.725 18.9554 129.584 19.274 130.653 19.274C131.365 19.274 131.994 19.1122 132.539 18.7876C133.083 18.4636 133.471 18.0297 133.702 17.4854H138.699C138.217 19.2637 137.242 20.6075 135.776 21.5175C134.309 22.4274 132.58 22.8824 130.59 22.8824C127.887 22.8824 125.723 22.1032 124.1 20.5448C122.476 18.9868 121.664 16.8789 121.664 14.2223C121.664 11.7747 122.518 9.73515 124.226 8.10338C125.933 6.4718 128.013 5.65601 130.464 5.65601ZM115.976 1.20031V6.12659H119.276V9.57826H115.976V17.0148C115.976 17.5796 116.133 17.9773 116.447 18.207C116.761 18.4376 117.243 18.5521 117.893 18.5521C118.354 18.5521 118.815 18.5316 119.276 18.4894V22.4118C118.165 22.495 117.117 22.5477 116.133 22.5686C114.624 22.5686 113.482 22.3804 112.707 22.0038C111.932 21.6274 111.392 21.0154 111.088 20.1682C110.785 19.3211 110.633 18.2698 110.633 17.0148V9.57826H107.929V6.12659H110.633V1.20031H115.976ZM55.1917 0.00805664V8.35446H55.2545C55.6946 7.53867 56.3861 6.88507 57.3289 6.39328C58.2718 5.90206 59.2462 5.65607 60.2519 5.65607C64.1492 5.65607 66.0979 7.71654 66.0979 11.8375V22.4118H60.7546V12.7787C60.7546 10.9588 59.864 10.0489 58.0832 10.0489C57.2032 10.0489 56.5009 10.3735 55.9774 11.0215C55.4536 11.6703 55.1917 12.4758 55.1917 13.4377V22.4118H49.8486V0.00805664H55.1917ZM77.632 9.26425C76.7309 9.26425 75.9766 9.55767 75.3692 10.1429C74.761 10.729 74.3737 11.5448 74.2062 12.5905H80.8379C80.7751 11.6491 80.4552 10.8598 79.8792 10.2215C79.3027 9.5836 78.554 9.26425 77.632 9.26425ZM130.433 9.26425C129.532 9.26425 128.777 9.55767 128.17 10.1429C127.562 10.729 127.175 11.5448 127.007 12.5905H133.639C133.576 11.6491 133.256 10.8598 132.68 10.2215C132.104 9.5836 131.355 9.26425 130.433 9.26425Z" class="h8wnhhz" fill="#535E66"></path><path fill-rule="evenodd" clip-rule="evenodd" d="M66.0618 27.5512V30.4763H49.8143V27.5512H66.0618ZM32.2169 0.00848091V22.4122H28.8225V20.2157H28.7595C27.8167 21.9729 26.1402 22.8514 23.7309 22.8514C21.3842 22.8514 19.5297 22.0669 18.168 20.4981C16.8055 18.9292 16.125 16.8269 16.125 14.1912C16.125 11.6391 16.7638 9.59434 18.0422 8.05683C19.3199 6.51912 21.028 5.75055 23.1652 5.75055C24.3384 5.75055 25.4124 5.97565 26.3866 6.42506C27.3612 6.87524 28.0887 7.49729 28.5711 8.29218H28.6339V0.00848091H32.2169ZM13.8305 6.18969V8.69996L4.5274 19.5882H14.302V22.4122H0.00146484V19.9019L8.99033 9.01369H0.630358V6.18969H13.8305ZM42.4942 0.00842285C43.6255 0.00842285 44.4529 0.0819697 44.9772 0.228096V3.02055C44.5999 2.89514 44.055 2.83243 43.3427 2.83243C42.1485 2.83243 41.5514 3.34513 41.5514 4.36975V6.18965H44.5999V8.85688H41.5514V22.4121H37.9682V8.85688H35.2968V6.18965H37.9682V4.71503C37.9682 3.04165 38.34 1.83896 39.0841 1.10659C39.8276 0.374609 40.9644 0.00842285 42.4942 0.00842285ZM24.2338 8.57456C22.8509 8.57456 21.7508 9.10777 20.9336 10.1748C20.1165 11.2416 19.708 12.6746 19.708 14.4736C19.708 16.0845 20.1165 17.4128 20.9336 18.4585C21.7508 19.5048 22.8401 20.0274 24.2024 20.0274C25.6059 20.0274 26.7166 19.4783 27.5339 18.3801C28.351 17.2819 28.7595 15.9169 28.7595 14.2853C28.7595 12.5076 28.3667 11.1112 27.581 10.0964C26.7955 9.08203 25.6796 8.57456 24.2338 8.57456Z" class="zxys9ve" fill="#FA7D19"></path></svg>